<svg width="493" height="521" viewBox="0 0 493 521" fill="none" xmlns="http://www.w3.org/2000/svg">
<path d="M206.549 -217.442C206.549 -217.442 87.2371 -178.748 26.506 -177.933C-34.2251 -177.117 -35.1891 -214.254 21.3894 -214.254C77.968 -214.254 161.686 -132.79 286.56 -132.79C362.64 -132.79 345.734 -169.26 286.56 -169.26C162.873 -169.26 100.362 -116.927 -55.8777 -116.927C-172.52 -116.927 -137.965 -161.625 -55.8777 -161.625C56.6861 -161.625 184.451 -49.0279 340.839 -49.0279C452.069 -49.0279 437.98 -89.13 336.687 -89.13C278.774 -89.13 5.59489 -31.6824 -133.219 -31.6824C-250.899 -31.6824 -215.38 -86.2391 -131.365 -86.2391C13.5293 -86.2391 269.43 48.8183 406.316 48.8183C502.344 48.8183 484.696 -2.18034 396.751 -2.18034C308.805 -2.18034 37.5547 71.5008 -181.196 71.5008C-295.762 71.5008 -271.514 9.08679 -180.973 9.08679C-22.7315 9.08679 262.46 167.864 424.335 167.864C515.766 167.864 508.721 105.599 414.399 105.599C297.46 105.599 -68.632 180.54 -199.437 180.54C-301.027 180.54 -290.126 115.532 -197.361 115.532C-68.7062 115.532 206.326 276.607 409.06 276.607C508.128 276.607 501.899 214.638 402.905 214.638C331.274 214.638 -19.2463 285.354 -189.575 285.354C-286.122 285.354 -262.541 231.983 -185.719 231.983C-27.848 231.983 207.142 372.229 363.308 372.229C475.575 372.229 456.814 318.488 357.375 318.488C291.824 318.488 -28.4412 378.308 -143.675 378.308C-233.474 378.308 -223.834 333.98 -144.639 333.98C-36.8946 333.98 195.871 449.098 311.327 449.098C410.024 449.098 382.662 405.66 305.543 405.66C217.598 405.66 -5.0831 457.919 -85.0939 457.919C-150.867 457.919 -150.126 419.003 -83.1659 419.003C14.1966 419.003 156.273 502.543 242.513 502.543C296.274 502.543 293.975 467.259 235.765 467.259C195.797 467.259 -7.82676 517.442 -7.82676 517.442" stroke="black" stroke-opacity="0.1"/>
</svg>
