<svg width="162" height="100" viewBox="0 0 162 100" fill="none" xmlns="http://www.w3.org/2000/svg">
<path d="M11.2975 26.436C5.68705 26.436 1.73356 22.1628 1.73356 16.7267C1.67542 10.7384 5.30914 6.14535 11.501 6.14535C15.3091 6.14535 18.2743 7.80233 19.2045 10.6221L15.5998 11.6977C15.0766 8.84884 13.4487 6.9593 11.2103 6.9593C7.98356 6.9593 5.77425 10.2442 5.80332 15.186C5.83239 20.186 8.91379 23.5 13.0417 23.5C15.9777 23.5 18.2743 21.8721 19.1463 19.343L19.5533 19.4302C18.7394 23.7035 15.5708 26.436 11.2975 26.436ZM20.6225 26V25.593C22.3958 25.3895 23.1807 24.9826 23.1807 23.5872V8.96512C23.1807 7.59884 22.3958 7.19186 20.6225 6.98837V6.5814H29.6923V6.98837C27.9191 7.19186 27.1342 7.59884 27.1342 8.96512V23.5872C27.1342 24.9826 27.9191 25.3895 29.6923 25.593V26H20.6225ZM39.837 6.5814C47.5986 6.5814 50.7381 10.9419 50.7381 15.6512C50.7381 22.1919 45.5637 26 40.244 26H30.9707V25.593C32.744 25.3895 33.5288 24.9826 33.5288 23.5872V8.96512C33.5288 7.59884 32.744 7.19186 30.9707 6.98837V6.5814H39.837ZM40.244 25.186C44.023 25.186 46.5812 21.843 46.5812 16.2907C46.5812 11.9302 43.9067 7.39535 39.3428 7.39535H37.4823V23.7035C37.4823 24.8081 38.1509 25.186 40.244 25.186ZM60.1595 26.407C56.3513 26.407 53.2118 24.7791 52.2816 21.7558L55.7118 20.7965C56.3223 23.6744 58.299 25.593 60.5955 25.593C62.6304 25.593 64.0257 24.2558 64.0257 22.3081C64.0257 16.6395 52.9502 18.7326 52.9502 11.7558C52.9502 8.41279 55.6827 6.14535 60.0723 6.14535C63.5316 6.14535 66.6711 7.68605 67.6304 10.593L64.2292 11.5523C63.6188 8.73256 61.7583 6.9593 59.6362 6.9593C57.7176 6.9593 56.4095 8.18023 56.4095 9.95349C56.4095 15.186 67.7467 13.3547 67.7467 20.5058C67.7467 24.1686 64.7525 26.407 60.1595 26.407Z" fill="#182B3A"/>
<path d="M7.01922 61.2213C3.55847 61.2213 1.36935 58.7425 1.36935 55.1691C1.36935 51.6117 3.68724 49.0202 7.21238 49.0202C9.73953 49.0202 11.5423 50.2757 12.1862 52.2234L10.3995 52.6097C9.90049 51.4025 8.77374 50.5815 7.22847 50.5815C4.73352 50.5815 3.23654 52.497 3.23654 55.153C3.23654 57.825 4.7979 59.7405 7.24457 59.7405C9.38541 59.7405 10.5122 58.4205 10.6409 56.2958H6.69729V54.7184H12.2828V60.996H10.5605V60.6419C10.5605 60.3038 10.5765 59.9658 10.5765 59.7727H10.5444C10.0776 60.4648 8.69326 61.2213 7.01922 61.2213ZM18.2257 61.2052C15.5697 61.2052 13.9279 59.4507 13.9279 56.7948C13.9279 54.2194 15.5697 52.3039 18.1613 52.3039C21.0425 52.3039 22.2498 54.4769 22.2498 57.2133H15.6019C15.6502 58.6942 16.7287 59.8048 18.2578 59.8048C19.61 59.8048 20.3665 59.0966 20.7528 58.4044L22.1854 59.0161C21.5254 60.2555 20.2055 61.2052 18.2257 61.2052ZM15.618 55.9256H20.4953C20.4148 54.7666 19.6421 53.656 18.1452 53.656C16.7126 53.656 15.7951 54.6862 15.618 55.9256ZM24.1747 60.996V54.2033C24.1747 53.7687 24.1586 52.9477 24.1586 52.5292H25.8004V52.8833C25.8004 53.0765 25.8004 53.4467 25.7843 53.656H25.8004C26.3316 52.8673 27.2169 52.3039 28.5047 52.3039C30.3558 52.3039 31.5791 53.4467 31.5791 55.7002V60.996H29.8729V56.7626C29.8729 54.7988 29.5026 53.7687 28.0379 53.7687C26.5409 53.7687 25.8809 54.7988 25.8809 56.8109V60.996H24.1747ZM37.7332 61.2052C35.0773 61.2052 33.4355 59.4507 33.4355 56.7948C33.4355 54.2194 35.0773 52.3039 37.6688 52.3039C40.5501 52.3039 41.7574 54.4769 41.7574 57.2133H35.1095C35.1578 58.6942 36.2363 59.8048 37.7654 59.8048C39.1175 59.8048 39.8741 59.0966 40.2604 58.4044L41.693 59.0161C41.033 60.2555 39.7131 61.2052 37.7332 61.2052ZM35.1256 55.9256H40.0028C39.9224 54.7666 39.1497 53.656 37.6528 53.656C36.2202 53.656 35.3027 54.6862 35.1256 55.9256ZM43.6823 60.996V54.0745C43.6823 53.3823 43.6823 53.0282 43.6662 52.5292H45.2758V52.9799C45.2758 53.2214 45.2758 53.5755 45.2597 53.8169H45.2919C45.7909 52.8512 46.6118 52.3522 47.7708 52.3522C47.9478 52.3522 48.1088 52.3683 48.2376 52.4005L48.1893 54.0262C48.0122 53.9779 47.8352 53.9618 47.6259 53.9618C46.0163 53.9618 45.3402 54.8954 45.3402 56.8109V60.996H43.6823ZM52.0547 61.1409C50.2358 61.1409 49.0125 60.2234 49.0125 58.662C49.0125 56.9397 50.3163 56.4407 52.1996 56.0544L53.7931 55.7485C54.4853 55.6198 54.6785 55.6359 54.6785 55.1047C54.6785 54.2516 54.0185 53.7043 52.8756 53.7043C51.6362 53.7043 51.0567 54.3159 50.928 55.2656L49.3022 55.1369C49.4793 53.4628 50.8958 52.3844 52.8756 52.3844C55.0809 52.3844 56.3364 53.3501 56.3364 55.5554V60.6258C56.3364 60.7706 56.3525 60.9155 56.3525 60.996H54.7911V60.6741C54.7911 60.497 54.7911 60.3843 54.8072 60.2716C54.8072 60.2234 54.8072 60.159 54.8233 60.1107H54.775C54.1795 60.7545 53.3263 61.1409 52.0547 61.1409ZM52.441 59.9336C53.8736 59.9336 54.7106 59.0322 54.7106 57.5996V57.2455C54.7106 57.1328 54.7267 56.988 54.7428 56.8753C54.5014 56.9558 54.2117 56.988 53.9058 57.0523L52.6986 57.2938C51.3626 57.5513 50.767 57.7445 50.767 58.6298C50.767 59.4668 51.4109 59.9336 52.441 59.9336ZM58.7413 60.996V49.2455H60.4475V60.996H58.7413ZM72.0669 61.2213C68.5579 61.2213 66.3527 58.6781 66.3527 55.1369C66.3527 51.5956 68.5901 49.0202 72.0669 49.0202C74.578 49.0202 76.3969 50.2757 76.9925 52.4487L75.2058 52.7385C74.6424 51.322 73.5961 50.5815 72.0026 50.5815C69.6203 50.5815 68.2199 52.5936 68.2199 55.1208C68.2199 57.7445 69.733 59.6922 72.1152 59.6922C73.6605 59.6922 74.739 58.7908 75.238 57.4387L77.0569 57.7123C76.4291 59.8531 74.6585 61.2213 72.0669 61.2213ZM82.5016 61.2052C79.8457 61.2052 78.2039 59.4507 78.2039 56.7948C78.2039 54.2194 79.8457 52.3039 82.4372 52.3039C85.3185 52.3039 86.5258 54.4769 86.5258 57.2133H79.8779C79.9262 58.6942 81.0047 59.8048 82.5338 59.8048C83.8859 59.8048 84.6425 59.0966 85.0288 58.4044L86.4614 59.0161C85.8014 60.2555 84.4815 61.2052 82.5016 61.2052ZM79.894 55.9256H84.7712C84.6908 54.7666 83.9181 53.656 82.4212 53.656C80.9886 53.656 80.0711 54.6862 79.894 55.9256ZM88.4507 60.996V54.2033C88.4507 53.7687 88.4346 52.9477 88.4346 52.5292H90.0764V52.8833C90.0764 53.0765 90.0764 53.4467 90.0603 53.656H90.0764C90.6076 52.8673 91.4929 52.3039 92.7806 52.3039C94.6317 52.3039 95.8551 53.4467 95.8551 55.7002V60.996H94.1488V56.7626C94.1488 54.7988 93.7786 53.7687 92.3138 53.7687C90.8169 53.7687 90.1569 54.7988 90.1569 56.8109V60.996H88.4507ZM101.722 60.996H99.5809C98.8566 60.5936 98.6795 59.8692 98.6795 58.4366V53.8974H97.263V52.5292H98.6795V50.2113H100.354V52.5292H102.092V53.8974H100.354V57.8894C100.354 59.8692 100.836 60.3521 101.722 60.6419V60.996ZM107.244 61.2052C104.588 61.2052 102.946 59.4507 102.946 56.7948C102.946 54.2194 104.588 52.3039 107.179 52.3039C110.061 52.3039 111.268 54.4769 111.268 57.2133H104.62C104.668 58.6942 105.747 59.8048 107.276 59.8048C108.628 59.8048 109.385 59.0966 109.771 58.4044L111.203 59.0161C110.544 60.2555 109.224 61.2052 107.244 61.2052ZM104.636 55.9256H109.513C109.433 54.7666 108.66 53.656 107.163 53.656C105.731 53.656 104.813 54.6862 104.636 55.9256ZM113.193 60.996V54.0745C113.193 53.3823 113.193 53.0282 113.177 52.5292H114.786V52.9799C114.786 53.2214 114.786 53.5755 114.77 53.8169H114.802C115.301 52.8512 116.122 52.3522 117.281 52.3522C117.458 52.3522 117.619 52.3683 117.748 52.4005L117.7 54.0262C117.523 53.9779 117.346 53.9618 117.136 53.9618C115.527 53.9618 114.851 54.8954 114.851 56.8109V60.996H113.193ZM123.281 60.996V53.8974H121.913V52.5292H123.281V51.7888C123.281 49.8411 124.15 49.149 125.889 49.149C126.259 49.149 126.565 49.1812 126.87 49.2294L126.79 50.662C126.581 50.5815 126.339 50.5494 126.082 50.5494C125.229 50.5494 124.955 50.9518 124.955 51.8049V52.5292H126.774V53.8974H124.955V60.996H123.281ZM131.844 61.2213C129.269 61.2213 127.53 59.4185 127.53 56.7626C127.53 54.1228 129.285 52.2878 131.877 52.2878C134.42 52.2878 136.19 54.1228 136.19 56.7626C136.19 59.4024 134.42 61.2213 131.844 61.2213ZM131.844 59.7887C133.47 59.7887 134.404 58.5654 134.404 56.7787C134.404 55.0403 133.47 53.7204 131.86 53.7204C130.219 53.7204 129.301 55.0081 129.301 56.7626C129.301 58.5654 130.235 59.7887 131.844 59.7887ZM138.139 60.996V54.0745C138.139 53.3823 138.139 53.0282 138.123 52.5292H139.733V52.9799C139.733 53.2214 139.733 53.5755 139.717 53.8169H139.749C140.248 52.8512 141.069 52.3522 142.228 52.3522C142.405 52.3522 142.566 52.3683 142.695 52.4005L142.646 54.0262C142.469 53.9779 142.292 53.9618 142.083 53.9618C140.473 53.9618 139.797 54.8954 139.797 56.8109V60.996H138.139ZM2.07759 78.996V67.2455H3.8804V78.996H2.07759ZM6.60058 78.996V72.2033C6.60058 71.7687 6.58449 70.9477 6.58449 70.5292H8.22633V70.8833C8.22633 71.0765 8.22633 71.4467 8.21023 71.656H8.22633C8.75752 70.8673 9.64282 70.3039 10.9305 70.3039C12.7816 70.3039 14.005 71.4467 14.005 73.7002V78.996H12.2987V74.7626C12.2987 72.7988 11.9285 71.7687 10.4637 71.7687C8.96677 71.7687 8.30681 72.7988 8.30681 74.8109V78.996H6.60058ZM19.8716 78.996H17.7308C17.0065 78.5936 16.8294 77.8692 16.8294 76.4366V71.8974H15.4129V70.5292H16.8294V68.2113H18.5034V70.5292H20.2419V71.8974H18.5034V75.8894C18.5034 77.8692 18.9863 78.3521 19.8716 78.6419V78.996ZM25.3936 79.2052C22.7377 79.2052 21.0959 77.4507 21.0959 74.7948C21.0959 72.2194 22.7377 70.3039 25.3292 70.3039C28.2105 70.3039 29.4178 72.4769 29.4178 75.2133H22.7699C22.8182 76.6942 23.8967 77.8048 25.4258 77.8048C26.7779 77.8048 27.5345 77.0966 27.9208 76.4044L29.3534 77.0161C28.6934 78.2555 27.3735 79.2052 25.3936 79.2052ZM22.786 73.9256H27.6632C27.5828 72.7666 26.8101 71.656 25.3131 71.656C23.8806 71.656 22.9631 72.6862 22.786 73.9256ZM31.3427 78.996V72.0745C31.3427 71.3823 31.3427 71.0282 31.3266 70.5292H32.9362V70.9799C32.9362 71.2214 32.9362 71.5755 32.9201 71.8169H32.9523C33.4513 70.8512 34.2722 70.3522 35.4312 70.3522C35.6082 70.3522 35.7692 70.3683 35.898 70.4005L35.8497 72.0262C35.6726 71.9779 35.4956 71.9618 35.2863 71.9618C33.6767 71.9618 33.0006 72.8954 33.0006 74.8109V78.996H31.3427ZM37.4417 78.996V72.2033C37.4417 71.7687 37.4256 70.9477 37.4256 70.5292H39.0675V70.8833C39.0675 71.0765 39.0675 71.4467 39.0514 71.656H39.0675C39.5987 70.8673 40.484 70.3039 41.7717 70.3039C43.6228 70.3039 44.8461 71.4467 44.8461 73.7002V78.996H43.1399V74.7626C43.1399 72.7988 42.7697 71.7687 41.3049 71.7687C39.8079 71.7687 39.148 72.7988 39.148 74.8109V78.996H37.4417ZM49.7126 79.1409C47.8937 79.1409 46.6703 78.2234 46.6703 76.662C46.6703 74.9397 47.9741 74.4407 49.8574 74.0544L51.451 73.7485C52.1431 73.6198 52.3363 73.6359 52.3363 73.1047C52.3363 72.2516 51.6763 71.7043 50.5335 71.7043C49.294 71.7043 48.7146 72.3159 48.5858 73.2656L46.9601 73.1369C47.1371 71.4628 48.5536 70.3844 50.5335 70.3844C52.7387 70.3844 53.9942 71.3501 53.9942 73.5554V78.6258C53.9942 78.7706 54.0103 78.9155 54.0103 78.996H52.449V78.6741C52.449 78.497 52.449 78.3843 52.4651 78.2716C52.4651 78.2234 52.4651 78.159 52.4812 78.1107H52.4329C51.8373 78.7545 50.9842 79.1409 49.7126 79.1409ZM50.0989 77.9336C51.5315 77.9336 52.3685 77.0322 52.3685 75.5996V75.2455C52.3685 75.1328 52.3846 74.988 52.4007 74.8753C52.1592 74.9558 51.8695 74.988 51.5637 75.0523L50.3564 75.2938C49.0204 75.5513 48.4248 75.7445 48.4248 76.6298C48.4248 77.4668 49.0687 77.9336 50.0989 77.9336ZM59.83 78.996H57.6891C56.9648 78.5936 56.7877 77.8692 56.7877 76.4366V71.8974H55.3712V70.5292H56.7877V68.2113H58.4618V70.5292H60.2002V71.8974H58.4618V75.8894C58.4618 77.8692 58.9447 78.3521 59.83 78.6419V78.996ZM61.7594 78.996V70.5292H63.4656V78.996H61.7594ZM61.7433 69.2254V67.2455H63.4817V69.2254H61.7433ZM69.7219 79.2213C67.1465 79.2213 65.408 77.4185 65.408 74.7626C65.408 72.1228 67.1626 70.2878 69.7541 70.2878C72.2973 70.2878 74.068 72.1228 74.068 74.7626C74.068 77.4024 72.2973 79.2213 69.7219 79.2213ZM69.7219 77.7887C71.3476 77.7887 72.2812 76.5654 72.2812 74.7787C72.2812 73.0403 71.3476 71.7204 69.738 71.7204C68.0961 71.7204 67.1786 73.0081 67.1786 74.7626C67.1786 76.5654 68.1122 77.7887 69.7219 77.7887ZM76.0168 78.996V72.2033C76.0168 71.7687 76.0007 70.9477 76.0007 70.5292H77.6425V70.8833C77.6425 71.0765 77.6425 71.4467 77.6264 71.656H77.6425C78.1737 70.8673 79.059 70.3039 80.3467 70.3039C82.1978 70.3039 83.4211 71.4467 83.4211 73.7002V78.996H81.7149V74.7626C81.7149 72.7988 81.3447 71.7687 79.8799 71.7687C78.3829 71.7687 77.723 72.7988 77.723 74.8109V78.996H76.0168ZM88.2876 79.1409C86.4687 79.1409 85.2453 78.2234 85.2453 76.662C85.2453 74.9397 86.5492 74.4407 88.4324 74.0544L90.026 73.7485C90.7181 73.6198 90.9113 73.6359 90.9113 73.1047C90.9113 72.2516 90.2514 71.7043 89.1085 71.7043C87.8691 71.7043 87.2896 72.3159 87.1608 73.2656L85.5351 73.1369C85.7121 71.4628 87.1286 70.3844 89.1085 70.3844C91.3137 70.3844 92.5692 71.3501 92.5692 73.5554V78.6258C92.5692 78.7706 92.5853 78.9155 92.5853 78.996H91.024V78.6741C91.024 78.497 91.024 78.3843 91.0401 78.2716C91.0401 78.2234 91.0401 78.159 91.0562 78.1107H91.0079C90.4123 78.7545 89.5592 79.1409 88.2876 79.1409ZM88.6739 77.9336C90.1065 77.9336 90.9435 77.0322 90.9435 75.5996V75.2455C90.9435 75.1328 90.9596 74.988 90.9757 74.8753C90.7342 74.9558 90.4445 74.988 90.1387 75.0523L88.9314 75.2938C87.5954 75.5513 86.9999 75.7445 86.9999 76.6298C86.9999 77.4668 87.6437 77.9336 88.6739 77.9336ZM94.9742 78.996V67.2455H96.6804V78.996H94.9742ZM103.294 78.996V67.2455H107.334C111.278 67.2455 113.145 69.4669 113.145 73.0242C113.145 76.3723 111.503 78.996 107.431 78.996H103.294ZM105.097 77.4668H107.125C109.7 77.4668 111.294 76.1791 111.294 73.1691C111.294 71.4467 110.859 70.1912 109.765 69.483C108.847 68.9196 107.769 68.7908 106.014 68.7908H105.097V77.4668ZM115.189 78.996V70.5292H116.895V78.996H115.189ZM115.173 69.2254V67.2455H116.911V69.2254H115.173ZM122.298 79.1891C120.383 79.1891 119.047 78.4326 118.677 76.823L120.19 76.4044C120.512 77.3059 121.188 77.8692 122.395 77.8692C123.313 77.8692 124.037 77.4185 124.037 76.7103C124.037 76.0503 123.49 75.7767 122.459 75.5352L121.494 75.3099C120.013 74.9719 118.983 74.328 118.983 72.8632C118.983 71.2375 120.447 70.3039 122.25 70.3039C123.973 70.3039 125.212 71.0765 125.55 72.493L124.069 72.9115C123.828 72.1228 123.216 71.6721 122.202 71.6721C121.301 71.6721 120.705 72.1067 120.705 72.7023C120.705 73.3944 121.156 73.6198 122.202 73.8612L123.232 74.1026C124.793 74.4729 125.759 75.1006 125.759 76.5332C125.759 78.2716 124.294 79.1891 122.298 79.1891ZM127.639 82.0221V71.495C127.639 71.1731 127.623 70.8351 127.623 70.5292H129.281V70.9155C129.281 71.1087 129.264 71.4306 129.264 71.6721H129.297C129.86 70.8833 130.81 70.32 132.081 70.32C134.351 70.32 135.993 72.1228 135.993 74.7626C135.993 77.4346 134.351 79.1891 132.081 79.1891C130.81 79.1891 129.908 78.7384 129.313 77.9175H129.297C129.345 78.4487 129.329 78.996 129.329 79.5111V82.0221H127.639ZM131.776 77.7887C133.305 77.7887 134.222 76.5332 134.222 74.8109C134.222 73.0564 133.305 71.7848 131.759 71.7848C130.23 71.7848 129.264 72.992 129.264 74.7948C129.264 76.5654 130.23 77.7887 131.776 77.7887ZM140.896 79.1891C139.093 79.1891 137.838 78.2395 137.838 76.002V70.5292H139.544V75.5674C139.544 77.0483 140.156 77.7887 141.379 77.7887C142.812 77.7887 143.488 76.6781 143.488 75.0202V70.5292H145.194V77.7405C145.194 78.1912 145.194 78.5292 145.21 78.996H143.568V78.6258C143.568 78.4487 143.568 78.1107 143.584 77.9175H143.552C142.989 78.7062 142.12 79.1891 140.896 79.1891ZM151.269 78.996H149.128C148.404 78.5936 148.227 77.8692 148.227 76.4366V71.8974H146.81V70.5292H148.227V68.2113H149.901V70.5292H151.639V71.8974H149.901V75.8894C149.901 77.8692 150.383 78.3521 151.269 78.6419V78.996ZM156.791 79.2052C154.135 79.2052 152.493 77.4507 152.493 74.7948C152.493 72.2194 154.135 70.3039 156.726 70.3039C159.608 70.3039 160.815 72.4769 160.815 75.2133H154.167C154.215 76.6942 155.294 77.8048 156.823 77.8048C158.175 77.8048 158.932 77.0966 159.318 76.4044L160.751 77.0161C160.091 78.2555 158.771 79.2052 156.791 79.2052ZM154.183 73.9256H159.06C158.98 72.7666 158.207 71.656 156.71 71.656C155.278 71.656 154.36 72.6862 154.183 73.9256ZM5.63492 97.2213C3.31702 97.2213 1.54641 96.0946 1.16009 94.0503L2.88242 93.6318C3.15606 94.9678 4.18623 95.7244 5.65102 95.7244C7.1158 95.7244 8.11378 95 8.11378 93.8411C8.11378 92.8753 7.38944 92.4246 6.03733 92.0222L5.07154 91.7324C2.89851 91.0886 1.5786 90.3159 1.5786 88.3683C1.5786 86.3562 3.30093 85.0202 5.69931 85.0202C7.84014 85.0202 9.28883 86.0665 9.72343 87.8532L8.08159 88.2878C7.77575 87.1771 6.93874 86.5655 5.63492 86.5655C4.3472 86.5655 3.46189 87.1932 3.46189 88.2234C3.46189 89.2375 4.12185 89.5755 5.7154 90.0906L6.85825 90.4447C8.66106 91.0081 9.98098 91.6841 9.98098 93.6801C9.98098 95.9175 8.12988 97.2213 5.63492 97.2213ZM15.632 97.2052C12.9761 97.2052 11.3342 95.4507 11.3342 92.7948C11.3342 90.2194 12.9761 88.3039 15.5676 88.3039C18.4489 88.3039 19.6561 90.4769 19.6561 93.2133H13.0083C13.0565 94.6942 14.135 95.8048 15.6642 95.8048C17.0163 95.8048 17.7728 95.0966 18.1591 94.4044L19.5917 95.0161C18.9318 96.2555 17.6119 97.2052 15.632 97.2052ZM13.0243 91.9256H17.9016C17.8211 90.7666 17.0485 89.656 15.5515 89.656C14.1189 89.656 13.2014 90.6862 13.0243 91.9256ZM24.9804 96.996H22.8396C22.1152 96.5936 21.9382 95.8692 21.9382 94.4366V89.8974H20.5217V88.5292H21.9382V86.2113H23.6122V88.5292H25.3506V89.8974H23.6122V93.8894C23.6122 95.8692 24.0951 96.3521 24.9804 96.6419V96.996ZM30.435 96.996H28.2941C27.5698 96.5936 27.3927 95.8692 27.3927 94.4366V89.8974H25.9762V88.5292H27.3927V86.2113H29.0668V88.5292H30.8052V89.8974H29.0668V93.8894C29.0668 95.8692 29.5497 96.3521 30.435 96.6419V96.996ZM32.3644 96.996V85.2455H34.0707V96.996H32.3644ZM40.3269 97.2052C37.671 97.2052 36.0291 95.4507 36.0291 92.7948C36.0291 90.2194 37.671 88.3039 40.2625 88.3039C43.1438 88.3039 44.351 90.4769 44.351 93.2133H37.7032C37.7515 94.6942 38.8299 95.8048 40.3591 95.8048C41.7112 95.8048 42.4677 95.0966 42.8541 94.4044L44.2867 95.0161C43.6267 96.2555 42.3068 97.2052 40.3269 97.2052ZM37.7193 91.9256H42.5965C42.516 90.7666 41.7434 89.656 40.2464 89.656C38.8138 89.656 37.8963 90.6862 37.7193 91.9256ZM46.2759 96.996V89.994C46.2759 89.3984 46.2759 89.0926 46.2599 88.5292H47.8856V89.0282C47.8856 89.2053 47.8856 89.495 47.8695 89.6721H47.9017C48.3363 88.8994 49.2538 88.3039 50.4771 88.3039C51.6522 88.3039 52.5375 88.8351 53.0365 89.8491C53.5677 88.9477 54.5496 88.3039 55.9017 88.3039C57.8976 88.3039 58.9278 89.5755 58.9278 91.8451V96.996H57.2216V92.2314C57.2216 90.6862 56.7548 89.7687 55.4671 89.7687C53.9218 89.7687 53.455 91.0564 53.455 92.6982V96.996H51.7488V92.2636C51.7488 90.6701 51.2498 89.7687 50.0103 89.7687C48.5134 89.7687 47.9822 90.992 47.9822 92.7948V96.996H46.2759ZM65.069 97.2052C62.4131 97.2052 60.7712 95.4507 60.7712 92.7948C60.7712 90.2194 62.4131 88.3039 65.0046 88.3039C67.8859 88.3039 69.0931 90.4769 69.0931 93.2133H62.4453C62.4936 94.6942 63.572 95.8048 65.1012 95.8048C66.4533 95.8048 67.2098 95.0966 67.5962 94.4044L69.0287 95.0161C68.3688 96.2555 67.0489 97.2052 65.069 97.2052ZM62.4614 91.9256H67.3386C67.2581 90.7666 66.4855 89.656 64.9885 89.656C63.5559 89.656 62.6384 90.6862 62.4614 91.9256ZM71.018 96.996V90.2033C71.018 89.7687 71.0019 88.9477 71.0019 88.5292H72.6438V88.8833C72.6438 89.0765 72.6438 89.4467 72.6277 89.656H72.6438C73.175 88.8673 74.0603 88.3039 75.348 88.3039C77.1991 88.3039 78.4224 89.4467 78.4224 91.7002V96.996H76.7162V92.7626C76.7162 90.7988 76.346 89.7687 74.8812 89.7687C73.3842 89.7687 72.7243 90.7988 72.7243 92.8109V96.996H71.018ZM84.2891 96.996H82.1483C81.4239 96.5936 81.2469 95.8692 81.2469 94.4366V89.8974H79.8304V88.5292H81.2469V86.2113H82.9209V88.5292H84.6593V89.8974H82.9209V93.8894C82.9209 95.8692 83.4038 96.3521 84.2891 96.6419V96.996Z" fill="#182B3A"/>
</svg>
