<svg width="207" height="90" viewBox="0 0 207 90" fill="none" xmlns="http://www.w3.org/2000/svg">
<g clip-path="url(#clip0_5385_1440)">
<path d="M104.018 25.0488H104.74C104.819 25.0488 104.886 25.1169 104.886 25.1962V30.3443C104.886 30.4237 104.819 30.4917 104.74 30.4917H104.018C103.939 30.4917 103.871 30.4237 103.871 30.3443V25.1962C103.871 25.1169 103.939 25.0488 104.018 25.0488Z" fill="#182B3A"/>
<path d="M106.647 30.5031H107.346C107.425 30.5031 107.493 30.435 107.493 30.3557V27.0106L110.73 30.5825H110.911C110.99 30.5825 111.058 30.5144 111.058 30.4464V25.2076C111.058 25.1283 110.99 25.0602 110.911 25.0602H110.2C110.11 25.0602 110.054 25.1283 110.054 25.2076V28.428L106.838 24.9922H106.647C106.568 24.9922 106.5 25.0489 106.5 25.1283V30.367C106.5 30.4464 106.568 30.5144 106.647 30.5144V30.5031Z" fill="#182B3A"/>
<path d="M114.138 29.6746C113.631 29.6746 113.01 29.221 112.965 29.1983C112.897 29.1416 112.762 29.1416 112.706 29.255L112.424 29.7313C112.356 29.856 112.39 29.89 112.457 29.9694C112.615 30.1168 113.191 30.5704 114.161 30.5704C115.255 30.5704 115.943 29.8333 115.943 29.0282C115.943 28.019 115.075 27.5768 114.33 27.2706C113.71 27.0098 113.416 26.7604 113.416 26.3975C113.416 26.148 113.653 25.8532 114.093 25.8532C114.533 25.8532 115.109 26.2388 115.165 26.2841C115.255 26.3408 115.368 26.2841 115.436 26.1934L115.729 25.7512C115.785 25.6718 115.763 25.5471 115.684 25.4904C115.526 25.377 114.928 24.9688 114.138 24.9688C112.909 24.9688 112.401 25.7738 112.401 26.4655C112.401 27.384 113.134 27.8489 113.856 28.1438C114.511 28.4046 114.838 28.6767 114.838 29.0736C114.838 29.4138 114.533 29.6746 114.138 29.6746Z" fill="#182B3A"/>
<path d="M116.803 25.9787H117.987V30.3443C117.987 30.4237 118.055 30.4917 118.134 30.4917H118.856C118.935 30.4917 119.003 30.4237 119.003 30.3443V25.9787H120.187C120.278 25.9787 120.334 25.9106 120.334 25.8312V25.1962C120.334 25.1169 120.278 25.0488 120.187 25.0488H116.803C116.713 25.0488 116.656 25.1169 116.656 25.1962V25.8312C116.656 25.9106 116.713 25.9787 116.803 25.9787Z" fill="#182B3A"/>
<path d="M121.483 25.0488H122.205C122.284 25.0488 122.351 25.1169 122.351 25.1962V30.3443C122.351 30.4237 122.284 30.4917 122.205 30.4917H121.483C121.404 30.4917 121.336 30.4237 121.336 30.3443V25.1962C121.336 25.1169 121.404 25.0488 121.483 25.0488Z" fill="#182B3A"/>
<path d="M123.49 25.9787H124.675V30.3443C124.675 30.4237 124.743 30.4917 124.822 30.4917H125.544C125.623 30.4917 125.69 30.4237 125.69 30.3443V25.9787H126.875C126.965 25.9787 127.021 25.9106 127.021 25.8312V25.1962C127.021 25.1169 126.965 25.0488 126.875 25.0488H123.49C123.4 25.0488 123.344 25.1169 123.344 25.1962V25.8312C123.344 25.9106 123.4 25.9787 123.49 25.9787Z" fill="#182B3A"/>
<path d="M130.132 30.5707C131.362 30.5707 132.298 29.6068 132.298 28.4276V25.1845C132.298 25.1051 132.23 25.0371 132.152 25.0371H131.418C131.328 25.0371 131.272 25.1051 131.272 25.1845V28.3709C131.272 29.0285 130.82 29.5501 130.143 29.5501C129.467 29.5501 129.027 29.0285 129.027 28.3709V25.1845C129.027 25.1051 128.959 25.0371 128.88 25.0371H128.147C128.068 25.0371 128 25.1051 128 25.1845V28.4276C128 29.6068 128.936 30.5707 130.155 30.5707H130.132Z" fill="#182B3A"/>
<path d="M133.404 25.9787H134.589V30.3443C134.589 30.4237 134.657 30.4917 134.736 30.4917H135.458C135.537 30.4917 135.604 30.4237 135.604 30.3443V25.9787H136.789C136.879 25.9787 136.936 25.9106 136.936 25.8312V25.1962C136.936 25.1169 136.879 25.0488 136.789 25.0488H133.404C133.314 25.0488 133.258 25.1169 133.258 25.1962V25.8312C133.258 25.9106 133.314 25.9787 133.404 25.9787Z" fill="#182B3A"/>
<path d="M139.901 30.503H141.74C143.24 30.503 144.459 29.2784 144.459 27.7703C144.459 26.2621 143.24 25.0488 141.74 25.0488H139.901C139.822 25.0488 139.766 25.1169 139.766 25.1962V30.3443C139.766 30.4237 139.822 30.4917 139.901 30.4917V30.503ZM140.758 25.99H141.638C142.642 25.99 143.376 26.7497 143.376 27.7589C143.376 28.7681 142.642 29.5392 141.638 29.5392H140.758V25.9787V25.99Z" fill="#182B3A"/>
<path d="M145.873 30.4917H149.021C149.111 30.4917 149.167 30.4237 149.167 30.3443V29.7093C149.167 29.6299 149.111 29.5619 149.021 29.5619H146.731V28.2012H148.637C148.716 28.2012 148.784 28.1445 148.784 28.0537V27.4074C148.784 27.328 148.716 27.26 148.637 27.26H146.731V25.9787H149.021C149.111 25.9787 149.167 25.9106 149.167 25.8312V25.1962C149.167 25.1169 149.111 25.0488 149.021 25.0488H145.873C145.783 25.0488 145.727 25.1169 145.727 25.1962V30.3443C145.727 30.4237 145.783 30.4917 145.873 30.4917Z" fill="#182B3A"/>
<path d="M152.451 30.4917H153.173C153.264 30.4917 153.32 30.4237 153.32 30.3443V28.2012H155.847V30.3443C155.847 30.4237 155.903 30.4917 155.994 30.4917H156.704C156.783 30.4917 156.851 30.4237 156.851 30.3443V25.1962C156.851 25.1169 156.783 25.0488 156.704 25.0488H155.994C155.903 25.0488 155.847 25.1169 155.847 25.1962V27.26H153.32V25.1962C153.32 25.1169 153.252 25.0488 153.173 25.0488H152.451C152.372 25.0488 152.305 25.1169 152.305 25.1962V30.3443C152.305 30.4237 152.372 30.4917 152.451 30.4917Z" fill="#182B3A"/>
<path d="M157.945 30.5023H158.622C158.746 30.5023 158.813 30.423 158.847 30.3436L159.231 29.5045H161.543L161.927 30.3436C161.983 30.457 162.04 30.5023 162.153 30.5023H162.829C162.942 30.5023 163.01 30.4003 162.965 30.2982L160.584 25.0595C160.584 25.0595 160.528 24.9688 160.449 24.9688H160.37C160.302 24.9688 160.257 25.0028 160.235 25.0595L157.832 30.2982C157.787 30.4003 157.843 30.5023 157.967 30.5023H157.945ZM160.359 26.9191H160.381L161.16 28.6313H159.603L160.359 26.9191Z" fill="#182B3A"/>
<path d="M165.76 30.5707C166.979 30.5707 167.915 29.6068 167.915 28.4276V25.1845C167.915 25.1051 167.847 25.0371 167.768 25.0371H167.035C166.945 25.0371 166.888 25.1051 166.888 25.1845V28.3709C166.888 29.0285 166.426 29.5501 165.76 29.5501C165.095 29.5501 164.632 29.0285 164.632 28.3709V25.1845C164.632 25.1051 164.576 25.0371 164.485 25.0371H163.752C163.673 25.0371 163.605 25.1051 163.605 25.1845V28.4276C163.605 29.6068 164.542 30.5707 165.76 30.5707Z" fill="#182B3A"/>
<path d="M169.033 25.9787H170.218V30.3443C170.218 30.4237 170.286 30.4917 170.365 30.4917H171.087C171.166 30.4917 171.233 30.4237 171.233 30.3443V25.9787H172.418C172.508 25.9787 172.564 25.9106 172.564 25.8312V25.1962C172.564 25.1169 172.508 25.0488 172.418 25.0488H169.033C168.943 25.0488 168.887 25.1169 168.887 25.1962V25.8312C168.887 25.9106 168.943 25.9787 169.033 25.9787Z" fill="#182B3A"/>
<path d="M173.713 30.4917H176.861C176.951 30.4917 177.007 30.4237 177.007 30.3443V29.7093C177.007 29.6299 176.951 29.5619 176.861 29.5619H174.57V28.2012H176.488C176.567 28.2012 176.635 28.1445 176.635 28.0537V27.4074C176.635 27.328 176.567 27.26 176.488 27.26H174.57V25.9787H176.861C176.951 25.9787 177.007 25.9106 177.007 25.8312V25.1962C177.007 25.1169 176.951 25.0488 176.861 25.0488H173.713C173.623 25.0488 173.566 25.1169 173.566 25.1962V30.3443C173.566 30.4237 173.623 30.4917 173.713 30.4917Z" fill="#182B3A"/>
<path d="M179.751 29.6746C179.243 29.6746 178.623 29.221 178.578 29.1983C178.51 29.1416 178.375 29.1416 178.318 29.255L178.036 29.7313C177.969 29.856 178.002 29.89 178.081 29.9694C178.239 30.1168 178.803 30.5704 179.785 30.5704C180.879 30.5704 181.567 29.8333 181.567 29.0282C181.567 28.019 180.699 27.5768 179.954 27.2706C179.334 27.0098 179.04 26.7604 179.04 26.3975C179.04 26.148 179.277 25.8532 179.717 25.8532C180.157 25.8532 180.733 26.2388 180.789 26.2841C180.879 26.3408 180.992 26.2841 181.06 26.1934L181.353 25.7512C181.409 25.6718 181.387 25.5471 181.308 25.4904C181.15 25.377 180.552 24.9688 179.762 24.9688C178.533 24.9688 178.025 25.7738 178.025 26.4655C178.025 27.384 178.747 27.8489 179.48 28.1438C180.135 28.4046 180.462 28.6767 180.462 29.0736C180.462 29.4138 180.157 29.6746 179.762 29.6746H179.751Z" fill="#182B3A"/>
<path d="M104.018 39.2567H107.165C107.255 39.2567 107.312 39.1887 107.312 39.1093V38.4743C107.312 38.3949 107.255 38.3269 107.165 38.3269H104.875V36.9662H106.793C106.872 36.9662 106.94 36.9095 106.94 36.8188V36.1724C106.94 36.0931 106.872 36.025 106.793 36.025H104.875V34.755H107.165C107.255 34.755 107.312 34.687 107.312 34.6076V33.9726C107.312 33.8932 107.255 33.8252 107.165 33.8252H104.018C103.927 33.8252 103.871 33.8932 103.871 33.9726V39.1206C103.871 39.2 103.939 39.2681 104.018 39.2681V39.2567Z" fill="#182B3A"/>
<path d="M104.766 32.9522L104.902 33.2244C104.935 33.2924 104.992 33.3264 105.093 33.2811L106.447 32.6801C106.515 32.6461 106.549 32.5667 106.492 32.476L106.278 32.0678C106.244 31.9997 106.165 31.9884 106.075 32.0451L104.811 32.8048C104.811 32.8048 104.732 32.8955 104.766 32.9522Z" fill="#182B3A"/>
<path d="M108.156 33.9609V34.5959C108.156 34.6753 108.213 34.7433 108.303 34.7433H109.487V39.1089C109.487 39.1883 109.555 39.2563 109.634 39.2563H110.356C110.435 39.2563 110.503 39.1883 110.503 39.1089V34.7433H111.687C111.778 34.7433 111.834 34.6753 111.834 34.5959V33.9609C111.834 33.8815 111.778 33.8135 111.687 33.8135H108.303C108.213 33.8135 108.156 33.8815 108.156 33.9609Z" fill="#182B3A"/>
<path d="M114.952 38.3275C114.275 38.3275 113.823 37.8059 113.823 37.1482V33.9619C113.823 33.8825 113.767 33.8145 113.677 33.8145H112.944C112.865 33.8145 112.797 33.8825 112.797 33.9619V37.2049C112.797 38.3842 113.733 39.348 114.952 39.348C116.17 39.348 117.118 38.3842 117.118 37.2049V33.9619C117.118 33.8825 117.05 33.8145 116.971 33.8145H116.238C116.147 33.8145 116.091 33.8825 116.091 33.9619V37.1482C116.091 37.8059 115.64 38.3275 114.963 38.3275H114.952Z" fill="#182B3A"/>
<path d="M118.684 33.9615V39.1095C118.684 39.1889 118.74 39.2569 118.819 39.2569H120.658C122.158 39.2569 123.377 38.0323 123.377 36.5242C123.377 35.016 122.158 33.8027 120.658 33.8027H118.819C118.74 33.8027 118.684 33.8708 118.684 33.9501V33.9615ZM119.688 34.7552H120.568C121.572 34.7552 122.305 35.515 122.305 36.5242C122.305 37.5334 121.572 38.3044 120.568 38.3044H119.688V34.7439V34.7552Z" fill="#182B3A"/>
<path d="M124.637 33.9619V39.1099C124.637 39.1893 124.693 39.2573 124.783 39.2573H127.931C128.021 39.2573 128.078 39.1893 128.078 39.1099V38.4749C128.078 38.3955 128.021 38.3275 127.931 38.3275H125.641V36.9668H127.547C127.626 36.9668 127.694 36.9101 127.694 36.8194V36.173C127.694 36.0937 127.626 36.0256 127.547 36.0256H125.641V34.7443H127.931C128.021 34.7443 128.078 34.6762 128.078 34.5969V33.9619C128.078 33.8825 128.021 33.8145 127.931 33.8145H124.783C124.693 33.8145 124.637 33.8825 124.637 33.9619Z" fill="#182B3A"/>
<path d="M129.096 35.2312C129.096 36.1496 129.818 36.6146 130.552 36.9094C131.206 37.1702 131.533 37.4423 131.533 37.8392C131.533 38.1794 131.229 38.4402 130.834 38.4402C130.326 38.4402 129.706 37.9866 129.66 37.9639C129.593 37.9072 129.457 37.9072 129.401 38.0206L129.119 38.4969C129.051 38.6216 129.085 38.6556 129.153 38.735C129.311 38.8824 129.886 39.336 130.856 39.336C131.951 39.336 132.639 38.5989 132.639 37.7938C132.639 36.7846 131.77 36.3424 131.025 36.0363C130.394 35.7754 130.112 35.526 130.112 35.1631C130.112 34.9137 130.349 34.6188 130.8 34.6188C131.251 34.6188 131.815 35.0044 131.872 35.0497C131.962 35.1064 132.075 35.0497 132.142 34.959L132.436 34.5168C132.492 34.4374 132.469 34.3127 132.39 34.256C132.233 34.1426 131.635 33.7344 130.845 33.7344C129.615 33.7344 129.108 34.5395 129.108 35.2312H129.096Z" fill="#182B3A"/>
<path d="M135.811 33.8141H136.533C136.612 33.8141 136.679 33.8821 136.679 33.9615V39.1095C136.679 39.1889 136.612 39.2569 136.533 39.2569H135.811C135.732 39.2569 135.664 39.1889 135.664 39.1095V33.9501C135.664 33.8708 135.732 33.8027 135.811 33.8027V33.8141Z" fill="#182B3A"/>
<path d="M138.435 39.257H139.135C139.225 39.257 139.281 39.189 139.281 39.1096V35.7645L142.519 39.3364H142.7C142.779 39.3364 142.846 39.2683 142.846 39.2003V33.9615C142.846 33.8822 142.779 33.8141 142.7 33.8141H141.989C141.899 33.8141 141.842 33.8822 141.842 33.9615V37.1819L138.616 33.7461H138.424C138.345 33.7461 138.277 33.8028 138.277 33.8822V39.1209C138.277 39.2003 138.345 39.2683 138.424 39.2683L138.435 39.257Z" fill="#182B3A"/>
<path d="M145.353 39.2563H146.075C146.154 39.2563 146.221 39.1883 146.221 39.1089V34.7433H147.406C147.485 34.7433 147.553 34.6753 147.553 34.5959V33.9609C147.553 33.8815 147.496 33.8135 147.406 33.8135H144.022C143.931 33.8135 143.875 33.8815 143.875 33.9609V34.5959C143.875 34.6753 143.931 34.7433 144.022 34.7433H145.206V39.1089C145.206 39.1883 145.274 39.2563 145.353 39.2563Z" fill="#182B3A"/>
<path d="M148.559 33.9619V39.1099C148.559 39.1893 148.615 39.2573 148.705 39.2573H151.853C151.932 39.2573 151.999 39.1893 151.999 39.1099V38.4749C151.999 38.3955 151.932 38.3275 151.853 38.3275H149.563V36.9668H151.48C151.559 36.9668 151.627 36.9101 151.627 36.8194V36.173C151.627 36.0937 151.559 36.0256 151.48 36.0256H149.563V34.7443H151.853C151.932 34.7443 151.999 34.6762 151.999 34.5969V33.9619C151.999 33.8825 151.932 33.8145 151.853 33.8145H148.705C148.615 33.8145 148.559 33.8825 148.559 33.9619Z" fill="#182B3A"/>
<path d="M153.526 33.8141C153.435 33.8141 153.379 33.8821 153.379 33.9615V39.1095C153.379 39.1889 153.435 39.2569 153.526 39.2569H154.236C154.315 39.2569 154.383 39.1889 154.383 39.1095V37.1252H155.24L156.267 39.1889C156.267 39.1889 156.323 39.2569 156.391 39.2569H157.203C157.339 39.2569 157.395 39.1322 157.339 39.0301L156.278 37.0571C156.955 36.785 157.429 36.1953 157.429 35.481C157.429 34.5511 156.673 33.8027 155.737 33.8027H153.526V33.8141ZM156.425 35.5036C156.425 35.9345 156.064 36.2974 155.658 36.2974H154.394V34.7552H155.658C156.064 34.7552 156.425 35.0954 156.425 35.515V35.5036Z" fill="#182B3A"/>
<path d="M162.327 33.9615V37.1819L159.1 33.7461H158.908C158.829 33.7461 158.762 33.8028 158.762 33.8822V39.1209C158.762 39.2003 158.829 39.2683 158.908 39.2683H159.608C159.698 39.2683 159.754 39.2003 159.754 39.1209V35.7758L162.992 39.3477H163.173C163.252 39.3477 163.319 39.2797 163.319 39.2116V33.9729C163.319 33.8935 163.252 33.8255 163.173 33.8255H162.462C162.372 33.8255 162.315 33.8935 162.315 33.9729L162.327 33.9615Z" fill="#182B3A"/>
<path d="M166.922 33.7344H166.843C166.775 33.7344 166.73 33.7684 166.707 33.8251L164.304 39.0638C164.259 39.1659 164.316 39.268 164.44 39.268H165.117C165.241 39.268 165.309 39.1886 165.342 39.1092L165.726 38.2701H168.039L168.422 39.1092C168.479 39.2226 168.535 39.268 168.648 39.268H169.325C169.437 39.268 169.505 39.1659 169.46 39.0638L167.08 33.8251C167.08 33.8251 167.023 33.7344 166.944 33.7344H166.922ZM166.087 37.397L166.843 35.6847H166.865L167.644 37.397H166.087Z" fill="#182B3A"/>
<path d="M169.449 33.9619V34.5969C169.449 34.6762 169.506 34.7443 169.596 34.7443H170.78V39.1099C170.78 39.1893 170.848 39.2573 170.927 39.2573H171.649C171.728 39.2573 171.796 39.1893 171.796 39.1099V34.7443H172.98C173.07 34.7443 173.127 34.6762 173.127 34.5969V33.9619C173.127 33.8825 173.07 33.8145 172.98 33.8145H169.596C169.506 33.8145 169.449 33.8825 169.449 33.9619Z" fill="#182B3A"/>
<path d="M174.276 33.8145H174.998C175.077 33.8145 175.144 33.8825 175.144 33.9619V39.1099C175.144 39.1893 175.077 39.2573 174.998 39.2573H174.276C174.197 39.2573 174.129 39.1893 174.129 39.1099V33.9619C174.129 33.8825 174.197 33.8145 174.276 33.8145Z" fill="#182B3A"/>
<path d="M179.181 39.336C180.727 39.336 181.968 38.1 181.968 36.5465C181.968 34.993 180.727 33.7344 179.181 33.7344C177.636 33.7344 176.406 34.9817 176.406 36.5465C176.406 38.1113 177.636 39.336 179.181 39.336ZM179.181 34.7436C180.152 34.7436 180.964 35.56 180.964 36.5465C180.964 37.533 180.163 38.3268 179.181 38.3268C178.2 38.3268 177.41 37.5217 177.41 36.5465C177.41 35.5713 178.211 34.7436 179.181 34.7436Z" fill="#182B3A"/>
<path d="M183.377 39.257H184.077C184.156 39.257 184.223 39.189 184.223 39.1096V35.7645L187.461 39.3364H187.641C187.72 39.3364 187.788 39.2683 187.788 39.2003V33.9615C187.788 33.8822 187.72 33.8141 187.641 33.8141H186.931C186.84 33.8141 186.784 33.8822 186.784 33.9615V37.1819L183.569 33.7461H183.377C183.298 33.7461 183.23 33.8028 183.23 33.8822V39.1209C183.23 39.2003 183.298 39.2683 183.377 39.2683V39.257Z" fill="#182B3A"/>
<path d="M188.909 39.2562H189.586C189.71 39.2562 189.778 39.1769 189.812 39.0975L190.195 38.2584H192.508L192.891 39.0975C192.948 39.2109 193.004 39.2562 193.117 39.2562H193.794C193.907 39.2562 193.974 39.1542 193.929 39.0521L191.549 33.8134C191.549 33.8134 191.492 33.7227 191.413 33.7227H191.335C191.267 33.7227 191.222 33.7567 191.199 33.8134L188.785 39.0521C188.74 39.1542 188.796 39.2562 188.92 39.2562H188.909ZM191.323 35.6844H191.346L192.124 37.3966H190.567L191.323 35.6844Z" fill="#182B3A"/>
<path d="M195.022 39.2573H197.853C197.944 39.2573 198 39.1893 198 39.1099V38.4749C198 38.3955 197.944 38.3275 197.853 38.3275H195.879V33.9619C195.879 33.8825 195.811 33.8145 195.732 33.8145H195.022C194.931 33.8145 194.875 33.8825 194.875 33.9619V39.1099C194.875 39.1893 194.931 39.2573 195.022 39.2573Z" fill="#182B3A"/>
<path d="M202.286 33.8145H199.139C199.049 33.8145 198.992 33.8825 198.992 33.9619V39.1099C198.992 39.1893 199.049 39.2573 199.139 39.2573H202.286C202.377 39.2573 202.433 39.1893 202.433 39.1099V38.4749C202.433 38.3955 202.365 38.3275 202.286 38.3275H199.996V36.9668H201.914C201.993 36.9668 202.061 36.9101 202.061 36.8194V36.173C202.061 36.0937 201.993 36.0256 201.914 36.0256H199.996V34.7443H202.286C202.377 34.7443 202.433 34.6762 202.433 34.5969V33.9619C202.433 33.8825 202.365 33.8145 202.286 33.8145Z" fill="#182B3A"/>
<path d="M205.373 36.0363C204.753 35.7754 204.459 35.526 204.459 35.1631C204.459 34.9137 204.696 34.6188 205.136 34.6188C205.576 34.6188 206.152 35.0044 206.208 35.0497C206.298 35.1064 206.411 35.0497 206.479 34.959L206.772 34.5168C206.828 34.4374 206.806 34.3127 206.727 34.256C206.569 34.1426 205.971 33.7344 205.181 33.7344C203.952 33.7344 203.444 34.5395 203.444 35.2312C203.444 36.1496 204.166 36.6146 204.899 36.9094C205.554 37.1702 205.881 37.4423 205.881 37.8392C205.881 38.1794 205.576 38.4402 205.181 38.4402C204.674 38.4402 204.053 37.9866 204.008 37.9639C203.94 37.9072 203.805 37.9072 203.749 38.0206L203.467 38.4969C203.399 38.6216 203.433 38.6556 203.5 38.735C203.658 38.8824 204.222 39.336 205.204 39.336C206.298 39.336 206.986 38.5989 206.986 37.7938C206.986 36.7846 206.118 36.3424 205.373 36.0363Z" fill="#182B3A"/>
<path d="M107.165 43.5089C107.255 43.5089 107.312 43.4409 107.312 43.3615V42.7265C107.312 42.6471 107.255 42.5791 107.165 42.5791H104.018C103.927 42.5791 103.871 42.6471 103.871 42.7265V47.8746C103.871 47.9539 103.927 48.022 104.018 48.022H107.165C107.255 48.022 107.312 47.9539 107.312 47.8746V47.2396C107.312 47.1602 107.255 47.0921 107.165 47.0921H104.875V45.7314H106.782C106.861 45.7314 106.928 45.6747 106.928 45.584V44.9377C106.928 44.8583 106.861 44.7903 106.782 44.7903H104.875V43.5089H107.165Z" fill="#182B3A"/>
<path d="M110.503 47.8746V43.5089H111.687C111.778 43.5089 111.834 43.4409 111.834 43.3615V42.7265C111.834 42.6471 111.778 42.5791 111.687 42.5791H108.303C108.213 42.5791 108.156 42.6471 108.156 42.7265V43.3615C108.156 43.4409 108.213 43.5089 108.303 43.5089H109.487V47.8746C109.487 47.9539 109.555 48.022 109.634 48.022H110.356C110.435 48.022 110.503 47.9539 110.503 47.8746Z" fill="#182B3A"/>
<path d="M116.638 48.0216C118.139 48.0216 119.357 46.7969 119.357 45.2888C119.357 43.7807 118.139 42.5674 116.638 42.5674H114.799C114.72 42.5674 114.664 42.6354 114.664 42.7148V47.8628C114.664 47.9422 114.732 48.0102 114.799 48.0102H116.638V48.0216ZM115.657 43.5085H116.537C117.541 43.5085 118.274 44.2683 118.274 45.2888C118.274 46.3093 117.541 47.0691 116.537 47.0691H115.657V43.5085Z" fill="#182B3A"/>
<path d="M121.442 42.5674H120.709C120.63 42.5674 120.562 42.6354 120.562 42.7148V45.9578C120.562 47.1371 121.499 48.101 122.717 48.101C123.936 48.101 124.872 47.1485 124.872 45.9578V42.7148C124.872 42.6354 124.804 42.5674 124.725 42.5674H123.992C123.902 42.5674 123.845 42.6354 123.845 42.7148V45.9011C123.845 46.5588 123.383 47.0804 122.717 47.0804C122.052 47.0804 121.589 46.5588 121.589 45.9011V42.7148C121.589 42.6354 121.533 42.5674 121.442 42.5674Z" fill="#182B3A"/>
<path d="M130.189 42.568H128.35C128.271 42.568 128.215 42.636 128.215 42.7154V47.8634C128.215 47.9428 128.271 48.0108 128.35 48.0108H130.189C131.689 48.0108 132.908 46.7862 132.908 45.2781C132.908 43.7699 131.689 42.5566 130.189 42.5566V42.568ZM130.099 47.0697H129.219V43.5091H130.099C131.103 43.5091 131.836 44.2689 131.836 45.2894C131.836 46.3099 131.103 47.0697 130.099 47.0697Z" fill="#182B3A"/>
<path d="M134.184 42.7152V47.8632C134.184 47.9426 134.251 48.0106 134.33 48.0106H137.478C137.568 48.0106 137.624 47.9426 137.624 47.8632V47.2282C137.624 47.1488 137.557 47.0808 137.478 47.0808H135.188V45.7201H137.105C137.184 45.7201 137.252 45.6634 137.252 45.5727V44.9263C137.252 44.847 137.184 44.7789 137.105 44.7789H135.188V43.5089H137.478C137.568 43.5089 137.624 43.4409 137.624 43.3615V42.7265C137.624 42.6471 137.557 42.5791 137.478 42.5791H134.33C134.24 42.5791 134.184 42.6471 134.184 42.7265V42.7152Z" fill="#182B3A"/>
<path d="M135.078 41.7169L135.214 41.989C135.248 42.0571 135.304 42.0911 135.405 42.0457L136.759 41.4447C136.827 41.4107 136.861 41.3313 136.804 41.2406L136.59 40.8324C136.556 40.7644 136.477 40.753 136.387 40.8097L135.112 41.5695C135.112 41.5695 135.033 41.6602 135.067 41.7169H135.078Z" fill="#182B3A"/>
<path d="M140.955 48.101H141.034C141.101 48.101 141.147 48.0669 141.169 48.0102L143.572 42.7715C143.617 42.6694 143.561 42.5674 143.437 42.5674H142.647C142.579 42.5674 142.534 42.6127 142.512 42.6581L141.022 46.0032H140.966L139.477 42.6581C139.477 42.6581 139.409 42.5674 139.342 42.5674H138.552C138.439 42.5674 138.371 42.6694 138.416 42.7715L140.808 48.0102C140.808 48.0102 140.876 48.101 140.943 48.101H140.955Z" fill="#182B3A"/>
<path d="M147.972 47.8746V47.2396C147.972 47.1602 147.916 47.0921 147.825 47.0921H145.535V45.7314H147.453C147.532 45.7314 147.6 45.6747 147.6 45.584V44.9377C147.6 44.8583 147.532 44.7903 147.453 44.7903H145.535V43.5089H147.825C147.916 43.5089 147.972 43.4409 147.972 43.3615V42.7265C147.972 42.6471 147.916 42.5791 147.825 42.5791H144.678C144.588 42.5791 144.531 42.6471 144.531 42.7265V47.8746C144.531 47.9539 144.588 48.022 144.678 48.022H147.825C147.916 48.022 147.972 47.9539 147.972 47.8746Z" fill="#182B3A"/>
<path d="M150.189 42.5674H149.479C149.388 42.5674 149.332 42.6354 149.332 42.7148V47.8628C149.332 47.9422 149.388 48.0102 149.479 48.0102H152.31C152.401 48.0102 152.457 47.9422 152.457 47.8628V47.2278C152.457 47.1485 152.401 47.0804 152.31 47.0804H150.336V42.7148C150.336 42.6354 150.268 42.5674 150.189 42.5674Z" fill="#182B3A"/>
<path d="M152.969 45.3004C152.969 46.8539 154.198 48.0899 155.744 48.0899C157.289 48.0899 158.53 46.8539 158.53 45.3004C158.53 43.7469 157.289 42.4883 155.744 42.4883C154.198 42.4883 152.969 43.7356 152.969 45.3004ZM157.526 45.3004C157.526 46.2756 156.725 47.0807 155.744 47.0807C154.762 47.0807 153.973 46.2756 153.973 45.3004C153.973 44.3252 154.774 43.4975 155.744 43.4975C156.714 43.4975 157.526 44.3139 157.526 45.3004Z" fill="#182B3A"/>
<path d="M161.768 42.5674H159.951C159.861 42.5674 159.805 42.6354 159.805 42.7148V47.8628C159.805 47.9422 159.861 48.0102 159.951 48.0102H160.662C160.741 48.0102 160.809 47.9422 160.809 47.8628V46.0372H161.779C162.727 46.0372 163.505 45.2548 163.505 44.291C163.505 43.3271 162.727 42.5674 161.768 42.5674ZM161.711 45.096H160.82V43.5312H161.711C162.151 43.5312 162.512 43.8601 162.512 44.2796C162.512 44.7445 162.151 45.0847 161.711 45.0847V45.096Z" fill="#182B3A"/>
<path d="M168.278 44.2919C168.278 43.3508 167.5 42.5684 166.541 42.5684H164.725C164.635 42.5684 164.578 42.6364 164.578 42.7158V47.8638C164.578 47.9432 164.635 48.0112 164.725 48.0112H165.435C165.514 48.0112 165.582 47.9432 165.582 47.8638V46.0382H166.552C167.5 46.0382 168.278 45.2558 168.278 44.2919ZM165.582 45.097V43.5322H166.473C166.913 43.5322 167.274 43.861 167.274 44.2806C167.274 44.7455 166.913 45.0857 166.473 45.0857H165.582V45.097Z" fill="#182B3A"/>
<path d="M172.638 43.5089C172.728 43.5089 172.785 43.4409 172.785 43.3615V42.7265C172.785 42.6471 172.728 42.5791 172.638 42.5791H169.49C169.4 42.5791 169.344 42.6471 169.344 42.7265V47.8746C169.344 47.9539 169.4 48.022 169.49 48.022H172.638C172.728 48.022 172.785 47.9539 172.785 47.8746V47.2396C172.785 47.1602 172.728 47.0921 172.638 47.0921H170.348V45.7314H172.266C172.345 45.7314 172.412 45.6747 172.412 45.584V44.9377C172.412 44.8583 172.345 44.7903 172.266 44.7903H170.348V43.5089H172.638Z" fill="#182B3A"/>
<path d="M173.905 48.0222H174.604C174.672 48.0222 174.74 47.9655 174.74 47.9088L175.191 44.9606H175.214L176.579 48.0222C176.579 48.0222 176.646 48.113 176.714 48.113H176.849C176.917 48.113 176.962 48.0789 176.985 48.0222L178.339 44.9606H178.361L178.812 47.9088C178.812 47.9088 178.891 48.0222 178.959 48.0222H179.658C179.76 48.0222 179.816 47.9542 179.794 47.8408L178.88 42.6134C178.88 42.5567 178.824 42.5 178.745 42.5H178.621C178.553 42.5 178.508 42.534 178.485 42.5794L176.782 46.2533H176.759L175.056 42.5794C175.056 42.5794 174.988 42.5 174.92 42.5H174.796C174.717 42.5 174.661 42.5567 174.661 42.6134L173.736 47.8408C173.725 47.9542 173.781 48.0222 173.882 48.0222H173.905Z" fill="#182B3A"/>
<path d="M184.4 43.5089C184.49 43.5089 184.546 43.4409 184.546 43.3615V42.7265C184.546 42.6471 184.49 42.5791 184.4 42.5791H181.252C181.162 42.5791 181.105 42.6471 181.105 42.7265V47.8746C181.105 47.9539 181.162 48.022 181.252 48.022H184.4C184.49 48.022 184.546 47.9539 184.546 47.8746V47.2396C184.546 47.1602 184.49 47.0921 184.4 47.0921H182.11V45.7314H184.027C184.106 45.7314 184.174 45.6747 184.174 45.584V44.9377C184.174 44.8583 184.106 44.7903 184.027 44.7903H182.11V43.5089H184.4Z" fill="#182B3A"/>
<path d="M190.34 48.101C190.419 48.101 190.487 48.0443 190.487 47.9649V42.7262C190.487 42.6468 190.419 42.5788 190.34 42.5788H189.63C189.539 42.5788 189.483 42.6468 189.483 42.7262V45.9465L186.256 42.5107H186.065C185.986 42.5107 185.918 42.5674 185.918 42.6468V47.8856C185.918 47.9649 185.986 48.033 186.065 48.033H186.764C186.854 48.033 186.911 47.9649 186.911 47.8856V44.5405L190.148 48.1124H190.329L190.34 48.101Z" fill="#182B3A"/>
<path d="M192.97 48.022H193.692C193.771 48.022 193.839 47.9539 193.839 47.8746V43.5089H195.023C195.102 43.5089 195.17 43.4409 195.17 43.3615V42.7265C195.17 42.6471 195.113 42.5791 195.023 42.5791H191.639C191.549 42.5791 191.492 42.6471 191.492 42.7265V43.3615C191.492 43.4409 191.549 43.5089 191.639 43.5089H192.823V47.8746C192.823 47.9539 192.891 48.022 192.97 48.022Z" fill="#182B3A"/>
<path d="M106.264 60.7448C107.381 60.7448 108.182 60.2345 108.182 60.2345C108.216 60.2118 108.238 60.1778 108.238 60.1098V58.1141C108.238 58.0347 108.182 57.9667 108.103 57.9667H106.614C106.523 57.9667 106.467 58.0347 106.467 58.1141V58.7264C106.467 58.8058 106.523 58.8625 106.614 58.8625H107.234V59.5201C107.076 59.5768 106.749 59.7129 106.309 59.7129C105.339 59.7129 104.572 58.8965 104.572 57.9326C104.572 56.9688 105.339 56.1297 106.309 56.1297C106.738 56.1297 107.144 56.2884 107.482 56.5833C107.55 56.6513 107.618 56.6513 107.685 56.5833L108.17 56.073C108.227 56.0163 108.227 55.9142 108.17 55.8576C107.64 55.404 106.975 55.1318 106.286 55.1318C104.741 55.1318 103.5 56.3905 103.5 57.944C103.5 59.4975 104.741 60.7335 106.286 60.7335L106.264 60.7448Z" fill="#182B3A"/>
<path d="M110.688 60.5294V58.5451H111.545L112.572 60.6088C112.572 60.6088 112.628 60.6769 112.696 60.6769H113.508C113.643 60.6769 113.688 60.5521 113.643 60.4501L112.583 58.477C113.26 58.2049 113.734 57.6266 113.734 56.9009C113.734 55.971 112.978 55.2227 112.041 55.2227H109.83C109.74 55.2227 109.684 55.2907 109.684 55.3701V60.5181C109.684 60.5975 109.74 60.6655 109.83 60.6655H110.541C110.62 60.6655 110.688 60.5975 110.688 60.5181V60.5294ZM110.699 56.1638H111.962C112.369 56.1638 112.73 56.504 112.73 56.9122C112.73 57.3431 112.369 57.706 111.962 57.706H110.699V56.1638Z" fill="#182B3A"/>
<path d="M118.606 60.5174C118.663 60.6308 118.719 60.6762 118.832 60.6762H119.509C119.622 60.6762 119.689 60.5741 119.644 60.472L117.264 55.2333C117.264 55.2333 117.207 55.1426 117.128 55.1426H117.049C116.982 55.1426 116.937 55.1766 116.914 55.2333L114.5 60.472C114.455 60.5741 114.511 60.6762 114.635 60.6762H115.312C115.436 60.6762 115.504 60.5968 115.538 60.5174L115.921 59.6783H118.234L118.617 60.5174H118.606ZM116.294 58.8165L117.049 57.1043H117.072L117.85 58.8165H116.294Z" fill="#182B3A"/>
<path d="M122.564 55.2223H120.725C120.646 55.2223 120.59 55.2903 120.59 55.3697V60.5177C120.59 60.5971 120.646 60.6651 120.725 60.6651H122.564C124.064 60.6651 125.283 59.4405 125.283 57.9324C125.283 56.4242 124.064 55.2109 122.564 55.2109V55.2223ZM122.474 59.724H121.594V56.1634H122.474C123.478 56.1634 124.211 56.9232 124.211 57.9437C124.211 58.9642 123.478 59.724 122.474 59.724Z" fill="#182B3A"/>
<path d="M127.36 55.2227H126.627C126.548 55.2227 126.48 55.2907 126.48 55.3701V58.6018C126.48 59.7811 127.417 60.7449 128.635 60.7449C129.854 60.7449 130.79 59.7924 130.79 58.6018V55.3701C130.79 55.2907 130.722 55.2227 130.643 55.2227H129.91C129.82 55.2227 129.763 55.2907 129.763 55.3701V58.5564C129.763 59.2141 129.301 59.7357 128.635 59.7357C127.97 59.7357 127.518 59.2141 127.518 58.5564V55.3701C127.518 55.2907 127.462 55.2227 127.372 55.2227H127.36Z" fill="#182B3A"/>
<path d="M135.559 60.5174C135.616 60.6308 135.672 60.6762 135.785 60.6762H136.462C136.575 60.6762 136.642 60.5741 136.597 60.472L134.217 55.2333C134.217 55.2333 134.16 55.1426 134.081 55.1426H134.003C133.935 55.1426 133.89 55.1766 133.867 55.2333L131.453 60.472C131.408 60.5741 131.464 60.6762 131.588 60.6762H132.265C132.389 60.6762 132.457 60.5968 132.491 60.5174L132.874 59.6783H135.187L135.571 60.5174H135.559ZM133.247 58.8165L134.003 57.1043H134.025L134.803 58.8165H133.247Z" fill="#182B3A"/>
<path d="M138.095 60.6772H138.817C138.896 60.6772 138.964 60.6092 138.964 60.5298V56.1642H140.148C140.238 56.1642 140.295 56.0962 140.295 56.0168V55.3818C140.295 55.3024 140.238 55.2344 140.148 55.2344H136.764C136.685 55.2344 136.617 55.3024 136.617 55.3818V56.0168C136.617 56.0962 136.685 56.1642 136.764 56.1642H137.948V60.5298C137.948 60.6092 138.016 60.6772 138.095 60.6772Z" fill="#182B3A"/>
<path d="M144.583 56.1642C144.673 56.1642 144.73 56.0962 144.73 56.0168V55.3818C144.73 55.3024 144.673 55.2344 144.583 55.2344H141.436C141.345 55.2344 141.289 55.3024 141.289 55.3818V60.5298C141.289 60.6092 141.345 60.6772 141.436 60.6772H144.583C144.673 60.6772 144.73 60.6092 144.73 60.5298V59.8948C144.73 59.8155 144.673 59.7474 144.583 59.7474H142.293V58.3867H144.211C144.29 58.3867 144.358 58.33 144.358 58.2393V57.593C144.358 57.5136 144.29 57.4455 144.211 57.4455H142.293V56.1642H144.583Z" fill="#182B3A"/>
<path d="M148.014 55.2227H148.736C148.815 55.2227 148.882 55.2907 148.882 55.3701V60.5181C148.882 60.5975 148.815 60.6655 148.736 60.6655H148.014C147.935 60.6655 147.867 60.5975 147.867 60.5181V55.3701C147.867 55.2907 147.935 55.2227 148.014 55.2227Z" fill="#182B3A"/>
<path d="M150.647 60.6769H151.346C151.436 60.6769 151.493 60.6089 151.493 60.5295V57.1844L154.73 60.7563H154.922C155.001 60.7563 155.069 60.6883 155.069 60.6202V55.3815C155.069 55.3021 155.001 55.234 154.922 55.234H154.212C154.121 55.234 154.065 55.3021 154.065 55.3815V58.6018L150.838 55.166H150.647C150.568 55.166 150.5 55.2227 150.5 55.3021V60.5408C150.5 60.6202 150.568 60.6883 150.647 60.6883V60.6769Z" fill="#182B3A"/>
<path d="M158.138 59.8601C157.631 59.8601 157.01 59.4065 156.965 59.3839C156.897 59.3272 156.762 59.3272 156.706 59.4405L156.424 59.9168C156.356 60.0415 156.39 60.0756 156.457 60.1549C156.615 60.3023 157.191 60.7559 158.161 60.7559C159.255 60.7559 159.943 60.0189 159.943 59.2138C159.943 58.2046 159.075 57.7623 158.33 57.4562C157.71 57.1954 157.416 56.9459 157.416 56.5831C157.416 56.3336 157.653 56.0388 158.093 56.0388C158.533 56.0388 159.109 56.4243 159.165 56.4697C159.255 56.5264 159.368 56.4697 159.436 56.3789L159.729 55.9367C159.785 55.8573 159.763 55.7326 159.684 55.6759C159.526 55.5625 158.928 55.1543 158.138 55.1543C156.909 55.1543 156.401 55.9594 156.401 56.6511C156.401 57.5696 157.123 58.0345 157.856 58.3293C158.511 58.5901 158.838 58.8622 158.838 59.2591C158.838 59.5993 158.533 59.8601 158.138 59.8601Z" fill="#182B3A"/>
<path d="M162.13 60.6763H162.852C162.931 60.6763 162.999 60.6082 162.999 60.5289V56.1632H164.183C164.274 56.1632 164.33 56.0952 164.33 56.0158V55.3808C164.33 55.3014 164.274 55.2334 164.183 55.2334H160.799C160.709 55.2334 160.652 55.3014 160.652 55.3808V56.0158C160.652 56.0952 160.709 56.1632 160.799 56.1632H161.984V60.5289C161.984 60.6082 162.051 60.6763 162.13 60.6763Z" fill="#182B3A"/>
<path d="M165.479 55.2227H166.201C166.28 55.2227 166.347 55.2907 166.347 55.3701V60.5181C166.347 60.5975 166.28 60.6655 166.201 60.6655H165.479C165.4 60.6655 165.332 60.5975 165.332 60.5181V55.3701C165.332 55.2907 165.4 55.2227 165.479 55.2227Z" fill="#182B3A"/>
<path d="M169.686 60.5289V56.1632H170.871C170.961 56.1632 171.018 56.0952 171.018 56.0158V55.3808C171.018 55.3014 170.961 55.2334 170.871 55.2334H167.487C167.396 55.2334 167.34 55.3014 167.34 55.3808V56.0158C167.34 56.0952 167.396 56.1632 167.487 56.1632H168.671V60.5289C168.671 60.6082 168.739 60.6763 168.818 60.6763H169.54C169.619 60.6763 169.686 60.6082 169.686 60.5289Z" fill="#182B3A"/>
<path d="M173.003 55.3701C173.003 55.2907 172.947 55.2227 172.856 55.2227H172.123C172.044 55.2227 171.977 55.2907 171.977 55.3701V58.6018C171.977 59.7811 172.913 60.7449 174.131 60.7449C175.35 60.7449 176.286 59.7924 176.286 58.6018V55.3701C176.286 55.2907 176.218 55.2227 176.139 55.2227H175.406C175.316 55.2227 175.259 55.2907 175.259 55.3701V58.5564C175.259 59.2141 174.797 59.7357 174.131 59.7357C173.466 59.7357 173.014 59.2141 173.014 58.5564V55.3701H173.003Z" fill="#182B3A"/>
<path d="M179.604 60.5298V56.1642H180.789C180.879 56.1642 180.935 56.0962 180.935 56.0168V55.3818C180.935 55.3024 180.879 55.2344 180.789 55.2344H177.404C177.314 55.2344 177.258 55.3024 177.258 55.3818V56.0168C177.258 56.0962 177.314 56.1642 177.404 56.1642H178.589V60.5298C178.589 60.6092 178.657 60.6772 178.736 60.6772H179.458C179.537 60.6772 179.604 60.6092 179.604 60.5298Z" fill="#182B3A"/>
<path d="M185.232 56.1642C185.322 56.1642 185.378 56.0962 185.378 56.0168V55.3818C185.378 55.3024 185.322 55.2344 185.232 55.2344H182.084C181.994 55.2344 181.938 55.3024 181.938 55.3818V60.5298C181.938 60.6092 181.994 60.6772 182.084 60.6772H185.232C185.322 60.6772 185.378 60.6092 185.378 60.5298V59.8948C185.378 59.8155 185.322 59.7474 185.232 59.7474H182.942V58.3867H184.859C184.938 58.3867 185.006 58.33 185.006 58.2393V57.593C185.006 57.5136 184.938 57.4455 184.859 57.4455H182.942V56.1642H185.232Z" fill="#182B3A"/>
<path d="M106.263 63.9082C104.717 63.9082 103.477 65.1669 103.477 66.7203C103.477 68.2738 104.706 69.5098 106.263 69.5098C107.82 69.5098 109.05 68.2738 109.05 66.7203C109.05 65.1669 107.809 63.9082 106.263 63.9082ZM106.263 68.5006C105.293 68.5006 104.492 67.6955 104.492 66.7203C104.492 65.7452 105.293 64.9287 106.263 64.9287C107.233 64.9287 108.045 65.7452 108.045 66.7203C108.045 67.6955 107.244 68.5006 106.263 68.5006Z" fill="#182B3A"/>
<path d="M113.618 63.9883H110.471C110.381 63.9883 110.324 64.0563 110.324 64.1357V69.2837C110.324 69.3631 110.381 69.4311 110.471 69.4311H111.182C111.261 69.4311 111.328 69.3631 111.328 69.2837V67.3107H113.235C113.314 67.3107 113.381 67.2427 113.381 67.1633V66.5283C113.381 66.4489 113.314 66.3809 113.235 66.3809H111.328V64.9181H113.618C113.709 64.9181 113.765 64.8501 113.765 64.7707V64.1357C113.765 64.0563 113.709 63.9883 113.618 63.9883Z" fill="#182B3A"/>
<path d="M116.861 63.9883H117.584C117.662 63.9883 117.73 64.0563 117.73 64.1357V69.2837C117.73 69.3631 117.662 69.4311 117.584 69.4311H116.861C116.783 69.4311 116.715 69.3631 116.715 69.2837V64.1357C116.715 64.0563 116.783 63.9883 116.861 63.9883Z" fill="#182B3A"/>
<path d="M123.766 63.9876H123.056C122.965 63.9876 122.909 64.0556 122.909 64.135V67.344L119.694 63.9082H119.502C119.423 63.9082 119.355 63.9762 119.355 64.0443V69.283C119.355 69.3624 119.423 69.4304 119.502 69.4304H120.202C120.292 69.4304 120.348 69.3624 120.348 69.283V65.9379L123.586 69.5098H123.778C123.857 69.5098 123.924 69.4531 123.924 69.3737V64.135C123.924 64.0556 123.857 63.9876 123.778 63.9876H123.766Z" fill="#182B3A"/>
<path d="M128.449 63.9883H125.065C124.974 63.9883 124.918 64.0563 124.918 64.1357V64.7707C124.918 64.8501 124.974 64.9181 125.065 64.9181H126.249V69.2837C126.249 69.3631 126.317 69.4311 126.396 69.4311H127.118C127.197 69.4311 127.264 69.3631 127.264 69.2837V64.9181H128.449C128.539 64.9181 128.596 64.8501 128.596 64.7707V64.1357C128.596 64.0563 128.539 63.9883 128.449 63.9883Z" fill="#182B3A"/>
<path d="M132.907 64.9171C132.998 64.9171 133.054 64.8491 133.054 64.7697V64.1347C133.054 64.0553 132.998 63.9873 132.907 63.9873H129.76C129.67 63.9873 129.613 64.0553 129.613 64.1347V69.2828C129.613 69.3621 129.67 69.4302 129.76 69.4302H132.907C132.998 69.4302 133.054 69.3621 133.054 69.2828V68.6478C133.054 68.5684 132.998 68.5003 132.907 68.5003H130.617V67.1396H132.535C132.614 67.1396 132.682 67.0829 132.682 66.9922V66.3459C132.682 66.2665 132.614 66.1985 132.535 66.1985H130.617V64.9171H132.907Z" fill="#182B3A"/>
<path d="M137.322 69.3631C137.322 69.3631 137.378 69.4311 137.446 69.4311H138.258C138.393 69.4311 138.45 69.3064 138.393 69.2044L137.333 67.2313C138.01 66.9592 138.484 66.3695 138.484 65.6552C138.484 64.7253 137.728 63.9883 136.791 63.9883H134.58C134.49 63.9883 134.434 64.0563 134.434 64.1357V69.2837C134.434 69.3631 134.49 69.4311 134.58 69.4311H135.291C135.37 69.4311 135.438 69.3631 135.438 69.2837V67.2994H136.295L137.322 69.3631ZM135.438 64.9181H136.701C137.107 64.9181 137.468 65.2583 137.468 65.6778C137.468 66.1087 137.107 66.4716 136.701 66.4716H135.438V64.9294V64.9181Z" fill="#182B3A"/>
<path d="M139.959 69.4304H140.658C140.748 69.4304 140.805 69.3624 140.805 69.283V65.9379L144.043 69.5098H144.223C144.302 69.5098 144.37 69.4531 144.37 69.3737V64.135C144.37 64.0556 144.302 63.9876 144.223 63.9876H143.512C143.422 63.9876 143.366 64.0556 143.366 64.135V67.344L140.139 63.9082H139.947C139.868 63.9082 139.801 63.9762 139.801 64.0443V69.283C139.801 69.3624 139.868 69.4304 139.947 69.4304H139.959Z" fill="#182B3A"/>
<path d="M149.458 69.283C149.515 69.3964 149.571 69.4418 149.684 69.4418H150.361C150.473 69.4418 150.541 69.3397 150.496 69.2377L148.116 63.9989C148.116 63.9989 148.059 63.9082 147.98 63.9082H147.901C147.834 63.9082 147.789 63.9422 147.766 63.9989L145.363 69.2377C145.318 69.3397 145.374 69.4418 145.498 69.4418H146.175C146.299 69.4418 146.367 69.3624 146.401 69.283L146.785 68.4439H149.097L149.481 69.283H149.458ZM147.146 67.5708L147.901 65.8586H147.924L148.702 67.5708H147.146Z" fill="#182B3A"/>
<path d="M152.7 69.4311C152.779 69.4311 152.847 69.3631 152.847 69.2837V64.9181H154.031C154.121 64.9181 154.178 64.8501 154.178 64.7707V64.1357C154.178 64.0563 154.121 63.9883 154.031 63.9883H150.647C150.556 63.9883 150.5 64.0563 150.5 64.1357V64.7707C150.5 64.8501 150.556 64.9181 150.647 64.9181H151.831V69.2837C151.831 69.3631 151.899 69.4311 151.978 69.4311H152.7Z" fill="#182B3A"/>
<path d="M155.322 63.9883H156.044C156.123 63.9883 156.191 64.0563 156.191 64.1357V69.2837C156.191 69.3631 156.123 69.4311 156.044 69.4311H155.322C155.243 69.4311 155.176 69.3631 155.176 69.2837V64.1357C155.176 64.0563 155.243 63.9883 155.322 63.9883Z" fill="#182B3A"/>
<path d="M160.232 63.9082C158.686 63.9082 157.445 65.1669 157.445 66.7203C157.445 68.2738 158.675 69.5098 160.232 69.5098C161.789 69.5098 163.018 68.2738 163.018 66.7203C163.018 65.1669 161.777 63.9082 160.232 63.9082ZM160.232 68.5006C159.25 68.5006 158.461 67.6955 158.461 66.7203C158.461 65.7452 159.262 64.9287 160.232 64.9287C161.202 64.9287 162.014 65.7452 162.014 66.7203C162.014 67.6955 161.213 68.5006 160.232 68.5006Z" fill="#182B3A"/>
<path d="M164.427 69.4304H165.127C165.217 69.4304 165.274 69.3624 165.274 69.283V65.9379L168.511 69.5098H168.692C168.771 69.5098 168.838 69.4531 168.838 69.3737V64.135C168.838 64.0556 168.771 63.9876 168.692 63.9876H167.981C167.902 63.9876 167.834 64.0556 167.834 64.135V67.344L164.608 63.9082H164.416C164.337 63.9082 164.27 63.9762 164.27 64.0443V69.283C164.27 69.3624 164.337 69.4304 164.416 69.4304H164.427Z" fill="#182B3A"/>
<path d="M169.956 69.4301H170.633C170.757 69.4301 170.825 69.3507 170.859 69.2713L171.242 68.4322H173.555L173.939 69.2713C173.995 69.3847 174.051 69.4301 174.164 69.4301H174.841C174.954 69.4301 175.022 69.328 174.977 69.226L172.596 63.9872C172.596 63.9872 172.54 63.8965 172.461 63.8965H172.382C172.314 63.8965 172.269 63.9305 172.246 63.9872L169.844 69.226C169.798 69.328 169.855 69.4301 169.979 69.4301H169.956ZM172.371 65.8582H172.393L173.172 67.5704H171.615L172.371 65.8582Z" fill="#182B3A"/>
<path d="M175.922 64.1357V69.2837C175.922 69.3631 175.978 69.4311 176.069 69.4311H178.9C178.99 69.4311 179.047 69.3631 179.047 69.2837V68.6487C179.047 68.5694 178.979 68.5013 178.9 68.5013H176.926V64.1357C176.926 64.0563 176.858 63.9883 176.779 63.9883H176.069C175.978 63.9883 175.922 64.0563 175.922 64.1357Z" fill="#182B3A"/>
<path d="M183.765 63.9082H183.687C183.619 63.9082 183.574 63.9422 183.551 63.9989L181.148 69.2377C181.103 69.3397 181.16 69.4418 181.284 69.4418H181.961C182.085 69.4418 182.152 69.3624 182.186 69.283L182.57 68.4439H184.882L185.266 69.283C185.322 69.3964 185.379 69.4418 185.492 69.4418H186.168C186.281 69.4418 186.349 69.3397 186.304 69.2377L183.923 63.9989C183.923 63.9989 183.867 63.9082 183.788 63.9082H183.765ZM182.942 67.5708L183.698 65.8586H183.72L184.499 67.5708H182.942Z" fill="#182B3A"/>
<path d="M190.962 63.9876C190.871 63.9876 190.815 64.0556 190.815 64.135V67.344L187.588 63.9082H187.397C187.318 63.9082 187.25 63.9762 187.25 64.0443V69.283C187.25 69.3624 187.318 69.4304 187.397 69.4304H188.096C188.186 69.4304 188.243 69.3624 188.243 69.283V65.9379L191.48 69.5098H191.661C191.74 69.5098 191.808 69.4531 191.808 69.3737V64.135C191.808 64.0556 191.74 63.9876 191.661 63.9876H190.95H190.962Z" fill="#182B3A"/>
<path d="M195.431 63.9873H193.592C193.513 63.9873 193.457 64.0553 193.457 64.1347V69.2828C193.457 69.3621 193.525 69.4302 193.592 69.4302H195.431C196.932 69.4302 198.15 68.2055 198.15 66.6974C198.15 65.1893 196.932 63.9873 195.431 63.9873ZM195.341 68.489H194.461V64.9285H195.341C196.345 64.9285 197.078 65.6882 197.078 66.7087C197.078 67.7293 196.345 68.489 195.341 68.489Z" fill="#182B3A"/>
<path d="M105.845 72.7422H104.006C103.927 72.7422 103.871 72.8102 103.871 72.8896V78.0376C103.871 78.117 103.927 78.185 104.006 78.185H105.845C107.334 78.185 108.564 76.9604 108.564 75.4523C108.564 73.9442 107.346 72.7422 105.845 72.7422ZM105.755 77.2439H104.875V73.6834H105.755C106.759 73.6834 107.492 74.4431 107.492 75.4523C107.492 76.4615 106.759 77.2325 105.755 77.2325V77.2439Z" fill="#182B3A"/>
<path d="M113.134 72.7422H109.986C109.896 72.7422 109.84 72.8102 109.84 72.8896V78.0376C109.84 78.117 109.896 78.185 109.986 78.185H113.134C113.224 78.185 113.281 78.117 113.281 78.0376V77.4026C113.281 77.3233 113.224 77.2552 113.134 77.2552H110.844V75.8945H112.762C112.841 75.8945 112.908 75.8378 112.908 75.7471V75.1008C112.908 75.0214 112.841 74.9533 112.762 74.9533H110.844V73.672H113.134C113.224 73.672 113.281 73.604 113.281 73.5246V72.8896C113.281 72.8102 113.224 72.7422 113.134 72.7422Z" fill="#182B3A"/>
<path d="M119.077 72.7412H118.288C118.22 72.7412 118.175 72.7866 118.152 72.8319L116.663 76.177H116.607L115.118 72.8319C115.118 72.8319 115.061 72.7412 114.982 72.7412H114.192C114.08 72.7412 114.012 72.8433 114.057 72.9453L116.449 78.1841C116.449 78.1841 116.505 78.2634 116.584 78.2634H116.663C116.731 78.2634 116.776 78.2294 116.798 78.1841L119.201 72.9453C119.246 72.8433 119.19 72.7412 119.066 72.7412H119.077Z" fill="#182B3A"/>
<path d="M123.47 72.7412H120.322C120.232 72.7412 120.176 72.8092 120.176 72.8886V78.0367C120.176 78.116 120.232 78.1841 120.322 78.1841H123.47C123.56 78.1841 123.617 78.116 123.617 78.0367V77.4017C123.617 77.3223 123.56 77.2542 123.47 77.2542H121.18V75.8935H123.098C123.177 75.8935 123.244 75.8368 123.244 75.7461V75.0998C123.244 75.0204 123.177 74.9524 123.098 74.9524H121.18V73.671H123.47C123.56 73.671 123.617 73.603 123.617 73.5236V72.8886C123.617 72.8092 123.56 72.7412 123.47 72.7412Z" fill="#182B3A"/>
<path d="M127.959 77.2552H125.985V72.8896C125.985 72.8102 125.917 72.7422 125.838 72.7422H125.127C125.037 72.7422 124.98 72.8102 124.98 72.8896V78.0376C124.98 78.117 125.037 78.185 125.127 78.185H127.959C128.049 78.185 128.105 78.117 128.105 78.0376V77.4026C128.105 77.3233 128.049 77.2552 127.959 77.2552Z" fill="#182B3A"/>
<path d="M131.396 72.6738C129.851 72.6738 128.621 73.9212 128.621 75.486C128.621 77.0508 129.851 78.2754 131.396 78.2754C132.942 78.2754 134.183 77.0395 134.183 75.486C134.183 73.9325 132.942 72.6738 131.396 72.6738ZM131.396 77.2549C130.426 77.2549 129.625 76.4498 129.625 75.4746C129.625 74.4995 130.426 73.6717 131.396 73.6717C132.366 73.6717 133.179 74.4881 133.179 75.4746C133.179 76.4612 132.378 77.2549 131.396 77.2549Z" fill="#182B3A"/>
<path d="M137.416 72.7422H135.6C135.521 72.7422 135.453 72.8102 135.453 72.8896V78.0376C135.453 78.117 135.51 78.185 135.6 78.185H136.31C136.389 78.185 136.457 78.117 136.457 78.0376V76.212H137.427C138.375 76.212 139.153 75.4296 139.153 74.4658C139.153 73.5019 138.375 72.7422 137.416 72.7422ZM137.348 75.2708H136.446V73.706H137.348C137.788 73.706 138.149 74.0349 138.149 74.4658C138.149 74.9193 137.788 75.2708 137.348 75.2708Z" fill="#182B3A"/>
<path d="M144.741 72.6621H144.617C144.549 72.6621 144.504 72.6961 144.481 72.7415L142.778 76.4154H142.755L141.052 72.7415C141.052 72.7415 140.984 72.6621 140.916 72.6621H140.792C140.702 72.6621 140.657 72.7188 140.657 72.7755L139.732 78.0029C139.721 78.1163 139.777 78.1843 139.879 78.1843H140.578C140.646 78.1843 140.713 78.1276 140.713 78.071L141.165 75.1227H141.187L142.552 78.1843C142.552 78.1843 142.62 78.2751 142.688 78.2751H142.823C142.891 78.2751 142.936 78.2297 142.958 78.1843L144.312 75.1227H144.335L144.786 78.071C144.786 78.071 144.865 78.1843 144.933 78.1843H145.632C145.734 78.1843 145.79 78.1163 145.767 78.0029L144.854 72.7755C144.854 72.7188 144.797 72.6621 144.718 72.6621H144.741Z" fill="#182B3A"/>
<path d="M150.384 72.7422H147.237C147.146 72.7422 147.09 72.8102 147.09 72.8896V78.0376C147.09 78.117 147.146 78.185 147.237 78.185H150.384C150.474 78.185 150.531 78.117 150.531 78.0376V77.4026C150.531 77.3233 150.474 77.2552 150.384 77.2552H148.094V75.8945H150.012C150.091 75.8945 150.158 75.8378 150.158 75.7471V75.1008C150.158 75.0214 150.091 74.9533 150.012 74.9533H148.094V73.672H150.384C150.474 73.672 150.531 73.604 150.531 73.5246V72.8896C150.531 72.8102 150.474 72.7422 150.384 72.7422Z" fill="#182B3A"/>
<path d="M156.329 72.7419H155.618C155.528 72.7419 155.471 72.8099 155.471 72.8893V76.1096L152.245 72.6738H152.053C151.974 72.6738 151.906 72.7305 151.906 72.8099V78.0487C151.906 78.128 151.974 78.1961 152.053 78.1961H152.752C152.843 78.1961 152.899 78.128 152.899 78.0487V74.7036L156.137 78.2754H156.317C156.396 78.2754 156.464 78.2074 156.464 78.1394V72.9006C156.464 72.8212 156.396 72.7532 156.317 72.7532L156.329 72.7419Z" fill="#182B3A"/>
<path d="M161.011 72.7422H157.627C157.537 72.7422 157.48 72.8102 157.48 72.8896V73.5246C157.48 73.604 157.537 73.672 157.627 73.672H158.812V78.0376C158.812 78.117 158.879 78.185 158.958 78.185H159.68C159.759 78.185 159.827 78.117 159.827 78.0376V73.672H161.011C161.102 73.672 161.158 73.604 161.158 73.5246V72.8896C161.158 72.8102 161.102 72.7422 161.011 72.7422Z" fill="#182B3A"/>
<path d="M165.568 74.9757C164.937 74.7149 164.655 74.4654 164.655 74.1026C164.655 73.8531 164.892 73.5583 165.332 73.5583C165.771 73.5583 166.347 73.9438 166.403 73.9892C166.493 74.0459 166.606 73.9892 166.674 73.8985L166.967 73.4562C167.024 73.3769 167.001 73.2521 166.922 73.1954C166.764 73.0821 166.166 72.6738 165.377 72.6738C164.147 72.6738 163.639 73.4789 163.639 74.1706C163.639 75.0891 164.361 75.554 165.095 75.8488C165.749 76.1096 166.076 76.3818 166.076 76.7787C166.076 77.1075 165.771 77.3796 165.377 77.3796C164.869 77.3796 164.249 76.9147 164.203 76.892C164.136 76.8354 164 76.8354 163.944 76.9487L163.662 77.425C163.594 77.5497 163.628 77.5837 163.696 77.6631C163.854 77.8105 164.429 78.2754 165.399 78.2754C166.493 78.2754 167.182 77.5384 167.182 76.7333C167.182 75.7241 166.313 75.2819 165.568 74.9757Z" fill="#182B3A"/>
<path d="M171.422 72.7412H168.037C167.947 72.7412 167.891 72.8092 167.891 72.8886V73.5236C167.891 73.603 167.947 73.671 168.037 73.671H169.222V78.0367C169.222 78.116 169.289 78.1841 169.368 78.1841H170.09C170.169 78.1841 170.237 78.116 170.237 78.0367V73.671H171.422C171.512 73.671 171.568 73.603 171.568 73.5236V72.8886C171.568 72.8092 171.512 72.7412 171.422 72.7412Z" fill="#182B3A"/>
<path d="M176.691 72.7412H175.957C175.867 72.7412 175.811 72.8092 175.811 72.8886V76.075C175.811 76.7326 175.359 77.2542 174.683 77.2542C174.006 77.2542 173.566 76.7326 173.566 76.075V72.8886C173.566 72.8092 173.498 72.7412 173.419 72.7412H172.686C172.607 72.7412 172.539 72.8092 172.539 72.8886V76.1203C172.539 77.2996 173.475 78.2634 174.694 78.2634C175.912 78.2634 176.849 77.3109 176.849 76.1203V72.8886C176.849 72.8092 176.781 72.7412 176.702 72.7412H176.691Z" fill="#182B3A"/>
<path d="M180.396 72.7412H178.557C178.478 72.7412 178.422 72.8092 178.422 72.8886V78.0367C178.422 78.116 178.478 78.1841 178.557 78.1841H180.396C181.897 78.1841 183.115 76.9594 183.115 75.4513C183.115 73.9432 181.897 72.7412 180.396 72.7412ZM180.306 77.2429H179.426V73.6824H180.306C181.31 73.6824 182.054 74.4421 182.054 75.4513C182.054 76.4605 181.321 77.2316 180.306 77.2316V77.2429Z" fill="#182B3A"/>
<path d="M184.526 72.7422H185.248C185.327 72.7422 185.394 72.8102 185.394 72.8896V78.0376C185.394 78.117 185.327 78.185 185.248 78.185H184.526C184.447 78.185 184.379 78.117 184.379 78.0376V72.8896C184.379 72.8102 184.447 72.7422 184.526 72.7422Z" fill="#182B3A"/>
<path d="M190.31 72.7422H187.162C187.072 72.7422 187.016 72.8102 187.016 72.8896V78.0376C187.016 78.117 187.072 78.185 187.162 78.185H190.31C190.389 78.185 190.456 78.117 190.456 78.0376V77.4026C190.456 77.3233 190.389 77.2552 190.31 77.2552H188.02V75.8945H189.937C190.016 75.8945 190.084 75.8378 190.084 75.7471V75.1008C190.084 75.0214 190.016 74.9533 189.937 74.9533H188.02V73.672H190.31C190.389 73.672 190.456 73.604 190.456 73.5246V72.8896C190.456 72.8102 190.389 72.7422 190.31 72.7422Z" fill="#182B3A"/>
<path d="M193.385 74.9757C192.764 74.7149 192.471 74.4654 192.471 74.1026C192.471 73.8531 192.708 73.5583 193.148 73.5583C193.588 73.5583 194.163 73.9438 194.22 73.9892C194.31 74.0459 194.434 73.9892 194.49 73.8985L194.784 73.4562C194.84 73.3769 194.818 73.2521 194.739 73.1954C194.581 73.0821 193.983 72.6738 193.193 72.6738C191.963 72.6738 191.456 73.4789 191.456 74.1706C191.456 75.0891 192.189 75.554 192.911 75.8488C193.565 76.1096 193.892 76.3818 193.892 76.7787C193.892 77.1075 193.588 77.3796 193.193 77.3796C192.697 77.3796 192.065 76.9147 192.02 76.892C191.952 76.8354 191.817 76.8354 191.76 76.9487L191.478 77.425C191.411 77.5497 191.444 77.5837 191.512 77.6631C191.67 77.8105 192.245 78.2754 193.216 78.2754C194.31 78.2754 194.998 77.5384 194.998 76.7333C194.998 75.7241 194.129 75.2819 193.385 74.9757Z" fill="#182B3A"/>
<path d="M61.1486 43.2363L60.1445 45.8103H62.1639L61.1598 43.2363H61.1486Z" fill="#182B3A"/>
<path d="M58.7575 28.291H58.7462L57.7422 30.8764H59.7615L58.7575 28.291Z" fill="#182B3A"/>
<path d="M87.5084 0H2.00763C0.890783 0 -0.0117188 0.907144 -0.0117188 2.02973V62.3094C-0.0117188 77.5948 12.3187 89.9887 27.5371 89.9887H87.5084C88.6252 89.9887 89.5277 89.0815 89.5277 87.9589V2.02973C89.5277 0.907144 88.6252 0 87.5084 0ZM58.6847 24.8217H58.8088C58.8991 24.8217 58.978 24.8784 59.0232 24.9578L62.9039 33.5416C62.9829 33.7004 62.8814 33.8705 62.6896 33.8705H61.3133C61.0876 33.8705 60.9861 33.7911 60.8846 33.5643L60.4333 32.5778H57.0602L56.609 33.5757C56.5526 33.7231 56.4172 33.8705 56.169 33.8705H54.804C54.6235 33.8705 54.5219 33.7117 54.5896 33.5416L58.4704 24.9578C58.5042 24.8784 58.5945 24.8217 58.6847 24.8217ZM51.9385 46.9333C52.8297 46.9333 53.4841 46.2417 53.4841 45.3685V40.3225C53.4841 40.1978 53.5856 40.0844 53.721 40.0844H55.2439C55.368 40.0844 55.4808 40.1978 55.4808 40.3225V45.4706C55.4808 47.3642 53.8902 48.9291 51.9385 48.9291C49.9869 48.9291 48.4188 47.3642 48.4188 45.4706V40.3225C48.4188 40.1978 48.5316 40.0844 48.6557 40.0844H50.1786C50.314 40.0844 50.4156 40.1978 50.4156 40.3225V45.3685C50.4156 46.2417 51.0586 46.9333 51.9385 46.9333ZM46.5122 25.2073H48.1593C48.2608 25.2073 48.3398 25.2866 48.3736 25.3433L50.4156 29.8904H50.4945L52.5364 25.3433C52.559 25.2866 52.6492 25.2073 52.7508 25.2073H54.3978C54.5783 25.2073 54.6799 25.366 54.6122 25.5361L50.7201 33.9158C50.6863 33.9952 50.6073 34.0519 50.5058 34.0519H50.3817C50.2802 34.0519 50.2125 33.9952 50.1674 33.9158L46.2979 25.5361C46.2189 25.3773 46.3205 25.2073 46.5122 25.2073ZM38.6492 25.3773C38.6492 25.2526 38.7507 25.1392 38.8861 25.1392H44.0191C44.1544 25.1392 44.256 25.2526 44.256 25.3773V26.7381C44.256 26.8628 44.1544 26.9762 44.0191 26.9762H40.5896V28.5183H43.4212C43.5453 28.5183 43.6581 28.6317 43.6581 28.7565V30.1172C43.6581 30.2532 43.5453 30.3553 43.4212 30.3553H40.5896V32.0335H44.0191C44.1544 32.0335 44.256 32.1469 44.256 32.2716V33.6324C44.256 33.7571 44.1544 33.8705 44.0191 33.8705H38.8861C38.7507 33.8705 38.6492 33.7571 38.6492 33.6324V25.3887V25.3773ZM28.135 25.0145H28.4509L33.3921 29.7997H33.4034V25.3773C33.4034 25.2526 33.5049 25.1392 33.6403 25.1392H35.1294C35.2535 25.1392 35.3663 25.2526 35.3663 25.3773V33.7571C35.3663 33.8818 35.2535 33.9839 35.1294 33.9839H34.9377C34.9377 33.9839 34.8023 33.9499 34.7797 33.9272L29.8836 28.9832H29.8724V33.6324C29.8724 33.7571 29.7708 33.8705 29.6355 33.8705H28.1576C28.0335 33.8705 27.9207 33.7571 27.9207 33.6324V25.2526C27.9094 25.1279 28.0222 25.0258 28.1463 25.0258L28.135 25.0145ZM19.5274 25.3773C19.5274 25.2526 19.629 25.1392 19.7643 25.1392H24.8973C25.0327 25.1392 25.1342 25.2526 25.1342 25.3773V26.7381C25.1342 26.8628 25.0327 26.9762 24.8973 26.9762H21.4678V28.5183H24.2994C24.4235 28.5183 24.5363 28.6317 24.5363 28.7565V30.1172C24.5363 30.2532 24.4235 30.3553 24.2994 30.3553H21.4678V32.0335H24.8973C25.0327 32.0335 25.1342 32.1469 25.1342 32.2716V33.6324C25.1342 33.7571 25.0327 33.8705 24.8973 33.8705H19.7643C19.629 33.8705 19.5274 33.7571 19.5274 33.6324V25.3887V25.3773ZM13.6612 25.0372C14.6991 25.0372 15.8385 25.4794 16.6846 26.2051C16.7974 26.2958 16.8087 26.4432 16.7071 26.5453L15.7257 27.5885C15.6241 27.6792 15.4887 27.6792 15.3872 27.5998C14.9134 27.169 14.3719 26.9989 13.7627 26.9989C12.409 26.9989 11.326 28.1441 11.326 29.5162C11.326 30.8882 12.4315 31.9995 13.774 31.9995C14.135 31.9995 14.5073 31.9541 14.8796 31.8067V30.6955H14.1011C13.9658 30.6955 13.8642 30.5934 13.8642 30.4687V29.2327C13.8642 29.0966 13.9658 28.9946 14.1011 28.9946H16.5943C16.7184 28.9946 16.8199 29.108 16.8199 29.2327V32.9633C16.8312 33.02 16.7861 33.1221 16.7297 33.1674C16.7297 33.1674 15.4549 33.9725 13.6612 33.9725C11.2019 33.9725 9.21636 32.0108 9.21636 29.5162C9.21636 27.0215 11.2019 25.0372 13.6612 25.0372ZM11.7885 63.5114C11.7885 63.6361 11.6757 63.7495 11.5516 63.7495H10.0625C9.93836 63.7495 9.82555 63.6361 9.82555 63.5114V55.2677C9.82555 55.143 9.93836 55.0296 10.0625 55.0296H11.5516C11.6757 55.0296 11.7885 55.143 11.7885 55.2677V63.5114ZM9.20508 44.45C9.20508 41.9554 11.1906 39.971 13.6499 39.971C14.6878 39.971 15.8272 40.4133 16.6733 41.139C16.7861 41.2297 16.7974 41.3771 16.6958 41.4792L15.7144 42.5224C15.6128 42.6131 15.4775 42.6131 15.3759 42.5337C14.9021 42.1028 14.3606 41.9327 13.7514 41.9327C12.3977 41.9327 11.3147 43.078 11.3147 44.45C11.3147 45.8221 12.4202 46.9333 13.7627 46.9333C14.1237 46.9333 14.496 46.888 14.8683 46.7406V45.6293H14.0899C13.9545 45.6293 13.853 45.5273 13.853 45.4025V44.1666C13.853 44.0305 13.9545 43.9284 14.0899 43.9284H16.583C16.7071 43.9284 16.8087 44.0418 16.8087 44.1666V47.8972C16.8199 47.9652 16.7748 48.0559 16.7184 48.1013C16.7184 48.1013 15.4436 48.9064 13.6499 48.9064C11.1906 48.9064 9.20508 46.9447 9.20508 44.45ZM22.0657 63.6475C22.0657 63.7722 21.9529 63.8743 21.8288 63.8743H21.6258C21.6258 63.8743 21.4904 63.8402 21.4678 63.8176L16.5717 58.8736H16.5605V63.5227C16.5605 63.6475 16.4589 63.7609 16.3236 63.7609H14.8457C14.7216 63.7609 14.6088 63.6475 14.6088 63.5227V55.143C14.5975 55.0183 14.7103 54.9162 14.8344 54.9162H15.139L20.0802 59.7014H20.0915V55.2791C20.0915 55.1543 20.193 55.041 20.3284 55.041H21.8175C21.9416 55.041 22.0544 55.1543 22.0544 55.2791V63.6588L22.0657 63.6475ZM22.72 45.3912H21.6934V48.5662C21.6934 48.6909 21.5806 48.8043 21.4565 48.8043H19.9787C19.8433 48.8043 19.7418 48.6909 19.7418 48.5662V40.3225C19.7418 40.1978 19.8433 40.0844 19.9787 40.0844H23.8594C25.3486 40.0844 26.5557 41.2977 26.5557 42.7718C26.5557 43.9171 25.7998 44.8356 24.7281 45.2778L26.4203 48.4415C26.5105 48.6002 26.4203 48.8043 26.2059 48.8043H24.5589C24.4574 48.8043 24.3784 48.7476 24.3558 48.6909L22.7088 45.3912H22.72ZM27.3454 63.8743C25.7321 63.8743 24.8409 63.2052 24.5589 62.9104C24.4348 62.7857 24.4009 62.7403 24.5025 62.5589L25.0891 61.527C25.1906 61.3683 25.4275 61.391 25.5065 61.4477C25.5516 61.4703 26.4541 62.128 27.2664 62.128C27.7628 62.128 28.1238 61.8218 28.1238 61.3796C28.1238 60.858 27.6951 60.4611 26.849 60.121C25.7773 59.6901 24.4461 58.8623 24.4461 57.3655C24.4461 56.1295 25.405 54.8822 27.3115 54.8822C28.5976 54.8822 29.5903 55.5399 29.9626 55.812C30.1093 55.9027 30.0867 56.1295 30.0416 56.2089L29.4098 57.1727C29.3196 57.3088 29.1052 57.4222 28.9924 57.3315C28.8796 57.2748 27.9771 56.5831 27.2213 56.5831C26.7813 56.5831 26.4429 56.8779 26.4429 57.2181C26.4429 57.683 26.8151 58.0232 27.7966 58.4314C28.7668 58.8169 30.3011 59.5767 30.3011 61.2776C30.3011 62.5589 29.1955 63.8516 27.3792 63.8516L27.3454 63.8743ZM30.1431 48.5095C30.0867 48.6569 29.9513 48.8043 29.7031 48.8043H28.3381C28.1463 48.8043 28.0561 48.6456 28.1238 48.4755L32.0045 39.8916C32.0384 39.8123 32.1286 39.7556 32.2189 39.7556H32.343C32.4332 39.7556 32.5122 39.8123 32.5573 39.8916L36.4381 48.4755C36.517 48.6342 36.4155 48.8043 36.2237 48.8043H34.8474C34.6218 48.8043 34.5202 48.725 34.4187 48.4982L33.9675 47.5117H30.5944L30.1431 48.5095ZM37.8257 56.6171C37.8257 56.7418 37.7241 56.8552 37.5888 56.8552H35.8176V63.5001C35.8176 63.6248 35.7048 63.7382 35.5807 63.7382H34.0916C33.9675 63.7382 33.8546 63.6248 33.8546 63.5001V56.8552H32.0835C31.9481 56.8552 31.8466 56.7418 31.8466 56.6171V55.2564C31.8466 55.1317 31.9481 55.0183 32.0835 55.0183H37.5888C37.7241 55.0183 37.8257 55.1317 37.8257 55.2564V56.6171ZM38.4574 48.5662V40.3225C38.4574 40.1978 38.5589 40.0844 38.683 40.0844H41.7064C44.098 40.0844 46.061 42.0348 46.061 44.4274C46.061 46.82 44.1093 48.793 41.7064 48.793H38.683C38.5589 48.793 38.4574 48.6796 38.4574 48.5549V48.5662ZM41.7854 63.5114C41.7854 63.6361 41.6726 63.7495 41.5485 63.7495H40.0593C39.9353 63.7495 39.8224 63.6361 39.8224 63.5114V55.2677C39.8224 55.143 39.9353 55.0296 40.0593 55.0296H41.5485C41.6726 55.0296 41.7854 55.143 41.7854 55.2677V63.5114ZM49.75 56.6171C49.75 56.7418 49.6484 56.8552 49.5131 56.8552H47.7419V63.5001C47.7419 63.6248 47.6291 63.7382 47.505 63.7382H46.0159C45.8918 63.7382 45.7789 63.6248 45.7789 63.5001V56.8552H44.0078C43.8724 56.8552 43.7709 56.7418 43.7709 56.6171V55.2564C43.7709 55.1317 43.8724 55.0183 44.0078 55.0183H49.5131C49.6484 55.0183 49.75 55.1317 49.75 55.2564V56.6171ZM58.7637 60.4044C58.7637 62.2981 57.173 63.8629 55.2214 63.8629C53.2697 63.8629 51.7016 62.2981 51.7016 60.4044V55.2564C51.7016 55.1317 51.8144 55.0183 51.9385 55.0183H53.4615C53.5969 55.0183 53.6984 55.1317 53.6984 55.2564V60.3024C53.6984 61.1755 54.3414 61.8672 55.2214 61.8672C56.1013 61.8672 56.7669 61.1642 56.7669 60.3024V55.2564C56.7669 55.1317 56.8684 55.0183 57.0038 55.0183H58.5268C58.6509 55.0183 58.7637 55.1317 58.7637 55.2564V60.4044ZM59.0232 48.4982C58.9668 48.6456 58.8314 48.793 58.5832 48.793H57.2182C57.0377 48.793 56.9361 48.6342 57.0038 48.4642L60.8846 39.8803C60.9184 39.8009 61.0087 39.7442 61.0989 39.7442H61.223C61.3133 39.7442 61.3922 39.8009 61.4374 39.8803L65.3181 48.4642C65.3971 48.6229 65.2955 48.793 65.1038 48.793H63.7274C63.5018 48.793 63.4003 48.7136 63.2988 48.4868L62.8475 47.5003H59.4744L59.0232 48.4982ZM66.6719 56.6171C66.6719 56.7418 66.5703 56.8552 66.435 56.8552H64.6638V63.5001C64.6638 63.6248 64.551 63.7382 64.4269 63.7382H62.9378C62.8137 63.7382 62.7009 63.6248 62.7009 63.5001V56.8552H60.9297C60.7943 56.8552 60.6928 56.7418 60.6928 56.6171V55.2564C60.6928 55.1317 60.7943 55.0183 60.9297 55.0183H66.435C66.5703 55.0183 66.6719 55.1317 66.6719 55.2564V56.6171ZM67.8113 48.5662V41.9214H66.0401C65.9047 41.9214 65.8032 41.808 65.8032 41.6833V40.3225C65.8032 40.1978 65.9047 40.0844 66.0401 40.0844H71.5454C71.6807 40.0844 71.7823 40.1978 71.7823 40.3225V41.6833C71.7823 41.808 71.6807 41.9214 71.5454 41.9214H69.7742V48.5662C69.7742 48.6909 69.6614 48.8043 69.5373 48.8043H68.0482C67.9241 48.8043 67.8113 48.6909 67.8113 48.5662ZM74.3431 56.6171C74.3431 56.7418 74.2416 56.8552 74.1062 56.8552H70.6767V58.3974H73.497C73.6211 58.3974 73.7339 58.5108 73.7339 58.6355V59.9962C73.7339 60.1323 73.6211 60.2343 73.497 60.2343H70.6767V61.9126H74.1062C74.2416 61.9126 74.3431 62.026 74.3431 62.1507V63.5114C74.3431 63.6361 74.2416 63.7495 74.1062 63.7495H68.9732C68.8379 63.7495 68.7363 63.6361 68.7363 63.5114V55.2677C68.7363 55.143 68.8379 55.0296 68.9732 55.0296H74.1062C74.2416 55.0296 74.3431 55.143 74.3431 55.2677V56.6284V56.6171ZM79.5099 41.6833C79.5099 41.808 79.4084 41.9214 79.273 41.9214H75.8435V43.4635H78.6638C78.7879 43.4635 78.9007 43.5769 78.9007 43.7017V45.0624C78.9007 45.1984 78.7879 45.3005 78.6638 45.3005H75.8435V46.9787H79.273C79.4084 46.9787 79.5099 47.0921 79.5099 47.2168V48.5775C79.5099 48.7023 79.4084 48.8157 79.273 48.8157H74.1401C74.0047 48.8157 73.9032 48.7023 73.9032 48.5775V40.3339C73.9032 40.2091 74.0047 40.0958 74.1401 40.0958H79.273C79.4084 40.0958 79.5099 40.2091 79.5099 40.3339V41.6946V41.6833Z" fill="#182B3A"/>
<path d="M32.2701 43.2363L31.2773 45.8103H33.2967L32.2814 43.2363H32.2701Z" fill="#182B3A"/>
<path d="M23.6995 41.8643H21.6914V43.8033H23.6995C24.2071 43.8033 24.6471 43.327 24.6471 42.8054C24.6471 42.2838 24.2071 41.8643 23.6995 41.8643Z" fill="#182B3A"/>
<path d="M43.9967 44.4275C43.9967 43.0214 42.9814 41.9102 41.5825 41.9102H40.3867V46.9561H41.5825C42.9814 46.9561 43.9967 45.8449 43.9967 44.4275Z" fill="#182B3A"/>
</g>
<defs>
<clipPath id="clip0_5385_1440">
<rect width="207" height="90" fill="white"/>
</clipPath>
</defs>
</svg>
