<svg width="255" height="272" viewBox="0 0 255 272" fill="none" xmlns="http://www.w3.org/2000/svg">
<path d="M157.483 262.308C150.464 260.552 144.14 258.301 144.14 258.301C145.138 258.127 144.227 258.243 150.667 257.038C157.049 255.848 158.51 255.601 164.082 255.514C173.995 255.368 173.098 259.826 173.098 259.826C173.098 262.729 170.826 264.733 170.826 264.733C170.826 264.733 165.775 264.37 157.483 262.308ZM71.8238 248.225C61.4908 247.92 61.8816 243.521 61.8816 243.521C61.8816 240.617 64.3128 238.832 64.3128 238.832C64.3128 238.832 69.5661 239.093 77.8441 241.01C84.8774 242.65 96.4115 246.527 96.4115 246.527C95.4274 246.715 91.8818 247.383 84.284 247.906C80.0438 248.182 78.3506 248.298 76.1219 248.298C74.9786 248.298 73.6761 248.298 71.8238 248.225ZM187.078 244.291C183.981 243.841 180.088 243.013 175.587 241.953C164.675 239.427 156.021 236.61 156.021 236.61C157.468 236.407 156.484 236.175 165.905 235.188C175.066 234.229 176.644 233.474 184.762 233.678C200.435 234.07 199.509 239.166 199.509 239.166C199.509 242.534 195.761 244.9 195.761 244.9C195.761 244.9 195.515 244.9 194.994 244.9C193.749 244.9 191.043 244.828 187.107 244.262M49.5805 218.869C38.741 217.823 39.3778 213.526 39.3778 213.526C39.3778 209.94 42.7642 208.314 42.7642 208.314C42.7642 208.314 42.7642 207.617 55.8179 209.693C65.543 211.246 84.9787 217.489 84.9787 217.489C83.9801 217.707 71.8382 219.072 64.2405 219.261C61.2882 219.333 59.6818 219.406 58.0755 219.406C56.0639 219.406 54.0812 219.275 49.5805 218.854M186.788 212.001C168.163 206.571 166.861 206.194 166.861 206.194C166.861 206.194 186.716 203.246 199.263 202.84C211.796 202.448 214.574 203 217.512 204.437C220.435 205.86 222.563 208.023 220.942 211.522C219.336 215.036 217.44 215.907 216.325 216.458C216.325 216.458 215.573 216.546 214.126 216.546C210.059 216.546 200.522 216.008 186.788 212.001ZM34.3271 184.285C23.1838 182.775 23.2561 177.839 23.2561 177.839C23.2561 172.888 27.3517 171.422 27.3517 171.422C27.3517 171.422 26.4399 170.725 39.9133 172.554C54.6312 174.543 81.1581 182.775 81.1581 182.775C80.1596 182.949 68.0032 183.951 60.4199 184.517C56.3388 184.808 51.9394 185.127 47.2216 185.127C43.155 185.127 38.8568 184.895 34.3126 184.285M203.619 178.028C189.987 174.674 174.704 169.186 174.704 169.186C176.34 168.866 182.866 167.589 193.489 166.442C204.082 165.266 206.803 165.033 215.819 164.99C235.834 164.874 234.835 171.799 234.835 171.799C235.284 177.549 228.221 181.599 228.221 181.599C228.221 181.599 217.382 181.396 203.605 178.028M29.508 145.637C17.9884 144.765 17.0477 138.551 17.0477 138.551C17.0477 132.337 23.3574 129.143 23.3574 129.143C23.3574 129.143 22.2576 128.345 38.1477 130.566C54.0523 132.817 84.8484 143.473 84.8484 143.473C83.6618 143.72 70.0437 145.128 61.1001 145.869C57.0769 146.188 52.6051 146.348 47.8438 146.348C42.0551 146.348 35.8177 146.101 29.4935 145.622M206.687 138.101C194.386 135.241 175.703 129.085 175.703 129.085C182.664 127.764 207.469 125.427 210.117 125.427C220.551 125.427 234.444 124.57 237.643 130.044C239.495 133.209 237.541 136.751 235.24 138.943C233.706 140.424 231.984 141.339 231.984 141.339C231.42 141.397 230.797 141.397 230.088 141.397C225.37 141.397 217.324 140.57 206.687 138.101ZM21.8668 100.455C18.7988 94.7196 27.0478 89.7107 27.0478 89.7107C30.9841 89.914 36.3821 90.0592 52.9958 93.7614C64.8049 96.4183 85.8904 103.649 85.8904 103.649C78.6834 104.854 61.6645 106.131 49.9133 106.567C48.8858 106.596 47.7425 106.625 46.4835 106.625C37.8872 106.625 24.6165 105.565 21.8668 100.455ZM205.443 97.1588C194.43 94.9955 177.367 89.9575 177.367 89.9575C190.522 87.9394 200.001 87.7942 208.192 87.0538C221.159 85.8342 229.061 87.8523 231.318 91.0174C233.012 93.3694 231.521 96.0989 229.915 97.8412C228.742 99.1188 227.454 99.7431 227.454 99.7431C226.948 99.7721 226.383 99.7867 225.776 99.7867C221.666 99.7867 215.081 99.0607 205.428 97.1733M47.5978 69.1523C42.5037 68.6151 37.7425 67.2068 35.8177 64.4483C32.8076 60.1507 39.5515 55.287 39.5515 55.287C42.9089 55.4757 48.3214 55.4322 63.3288 58.7134C73.4301 60.9057 91.8094 66.6841 91.8094 66.6841C85.6444 67.715 70.3766 68.8474 60.9409 69.2394C59.1174 69.2975 56.5849 69.4427 53.8497 69.4427C51.8236 69.4427 49.6818 69.3846 47.5978 69.1668M194.56 61.2542C186.065 59.8313 172.563 55.6645 172.563 55.6645C177.541 54.6917 189.48 53.3705 196.774 53.2108C204.097 53.0511 212.925 53.4141 215.168 56.3904C217.657 59.7587 211.796 63.4029 211.796 63.4029C211.405 63.4465 210.956 63.461 210.479 63.461C207.324 63.461 202.302 62.5754 194.56 61.2542ZM57.786 34.4818C55.76 30.8521 60.1449 27.4402 60.1449 27.4402C62.692 27.5854 69.9135 27.9194 78.394 29.7632C86.0786 31.4183 100.348 36.2095 100.348 36.2095C95.63 37.1677 83.4736 37.9517 76.5271 38.3147C75.3549 38.3728 74.1103 38.4018 72.8368 38.4018C66.5126 38.4018 59.4648 37.5162 57.786 34.4818ZM175.804 31.2586C169.856 29.8358 159.798 26.6562 159.798 26.6562C163.416 25.6835 172.042 24.4784 177.353 24.0138C182.635 23.5492 189.118 23.7815 190.71 26.8159C192.302 29.8213 188.872 33.0735 188.872 33.0735C188.511 33.1315 188.076 33.1606 187.584 33.1606C185.008 33.1606 180.696 32.4347 175.79 31.2586M85.2826 13.9089C83.9078 10.9906 86.86 7.82555 86.86 7.82555C88.5388 7.88362 92.9527 8.72571 98.0179 9.87268C103.083 11.0051 111.766 14.0831 111.766 14.0831C108.655 15.0413 101.26 16.2028 96.7154 16.6384C95.63 16.7545 94.4722 16.8271 93.3434 16.8271C89.7689 16.8271 86.339 16.1447 85.2826 13.9089ZM158.163 1.00179C154.111 2.20683 143.474 5.50257 140.97 6.2285C138.467 6.95443 133.72 8.39178 130.739 9.21934C127.787 10.0469 122.056 11.5568 121.81 11.6294C121.81 11.6294 115.008 9.29193 113.126 8.76926C111.231 8.24659 106.238 6.72213 101.144 6.03976C96.0641 5.3719 91.7805 5.25575 88.2204 5.67679C84.6748 6.12687 79.2334 7.04154 77.0336 8.566C74.8194 10.0759 73.6906 11.8327 73.3288 14.1412C73.3288 14.1412 73.1552 15.9124 74.6892 17.2336C76.2232 18.5258 79.2912 19.3243 82.5908 19.2808C85.8904 19.2227 91.3174 18.9323 95.0222 18.4096C98.7414 17.8724 105.558 16.74 107.425 16.377C109.277 16.0141 114.14 14.9542 114.14 14.9542C114.14 14.9542 123.734 18.7436 126.195 19.7744C130.507 21.6183 137.801 24.7253 138.988 25.2044C140.261 25.727 145.616 27.9774 145.616 27.9774L114.14 34.2204C114.14 34.2204 100.029 29.4438 90.6661 27.4112C81.3318 25.3641 70.9265 23.9558 60.4489 25.4512C49.9712 26.9611 45.7454 29.5164 44.2114 33.3493C42.6629 37.1822 47.1058 41.1023 59.5661 41.3201C59.5661 41.3201 71.9106 41.7411 98.6401 38.0388L103.546 37.3274C103.546 37.3274 123.387 44.4851 128.51 46.4887C133.749 48.5649 154.762 56.7824 154.762 56.7824L108.264 64.4918C108.264 64.4918 94.617 59.962 80.1161 56.3614C65.6008 52.7898 52.4604 51.5847 43.2997 52.7317C34.0956 53.8497 22.1273 55.8968 20.492 63.2287C18.8422 70.5897 32.084 72.3754 37.5254 72.448C42.9668 72.5061 63.7484 71.8963 75.8469 70.6042C87.9454 69.283 96.3825 68.136 96.3825 68.136C96.3825 68.136 124.169 78.0377 130.84 80.564C137.584 83.1192 158.12 91.1626 158.12 91.1626L104.111 101.195C104.111 101.195 81.737 93.1952 68.2058 90.2043C54.6746 87.2135 43.7628 86.2698 33.5167 86.9231C23.2995 87.591 8.84213 90.2043 4.93472 98.2186C4.93472 98.2186 2.08376 104.781 11.3747 107.975C20.6657 111.14 48.4806 109.529 49.3055 109.471C50.1159 109.413 80.7674 106.77 88.8572 105.362C89.0163 105.333 89.9136 105.217 90.0583 105.202C90.0583 105.202 104.111 110.385 110.927 112.984C119.61 116.367 139.972 124.962 143.04 126.138C146.282 127.401 154.487 130.711 154.487 130.711L102.736 140.787C102.736 140.787 71.3028 129.085 48.5385 126.574C25.7308 124.004 1.63513 129.739 0.53527 138.943C-0.550121 148.148 12.6482 149.339 26.7149 149.702C40.7816 150.065 75.5286 147.074 88.1625 144.678L153.373 170.725L97.7284 180.656C97.7284 180.656 59.3635 168.097 40.8829 168.329C22.4168 168.59 9.55125 171.799 8.33561 179.596C8.33561 179.596 7.80015 188.67 29.6816 188.06C51.5631 187.465 67.8295 187.349 84.313 184.343L85.6299 184.111C85.6299 184.111 109.378 192.241 121.824 197.033C134.241 201.824 148.525 207.297 148.525 207.297L99.494 215.544C99.494 215.544 63.8642 202.535 43.7483 206.237C43.7483 206.237 27.0333 207.428 26.0347 215.544C25.0506 223.689 58.3649 221.874 68.4808 220.785C78.5966 219.711 88.2638 218.636 88.2638 218.636L138.409 237.409L107.077 243.986C107.077 243.986 81.7804 234.534 67.3809 236.567C67.3809 236.567 50.0146 237.293 50.333 245.772C50.333 245.772 49.9567 251.579 69.2478 250.679C88.5388 249.793 95.9628 247.456 98.9875 247.514C98.9875 247.514 109.928 251.579 114.878 253.568C119.827 255.528 130.927 259.768 130.927 259.768C130.927 259.768 110.478 265.038 105.688 266.403C100.912 267.782 90.1307 270.41 90.3043 271.078C90.4635 271.731 96.6864 270.657 99.1901 270.003C101.723 269.35 132.244 260.755 133.445 260.682C133.445 260.682 151.868 267.433 162.852 267.056C173.836 266.708 179.292 265.096 181.492 263.296C183.691 261.51 184.849 259.361 184.632 257.024C184.415 254.686 179.581 252.61 172.114 253.133C164.632 253.684 158.091 254.163 141.708 257.387L111.028 245.452L141.708 238.687C141.708 238.687 154.791 242.752 161.752 244.32C168.756 245.844 180.551 248.37 190.117 247.354C199.697 246.338 210.305 245.205 212.447 237.438C212.447 237.438 214.98 229.148 187.816 231.471C160.667 233.794 152.736 235.463 152.736 235.463L106.122 217.838L151.376 208.822C151.376 208.822 177.251 216.952 188.699 218.317C200.131 219.667 209.741 220.785 223.865 217.025C238.004 213.279 236.326 206.281 235.891 205.323C235.457 204.364 233.692 201.417 225.124 200.212C216.557 199.022 203.431 199.893 196.774 200.604C190.102 201.33 163.489 204.669 162.91 204.902C162.91 204.902 112.765 185.374 101.925 182.049L157.266 172.075C157.266 172.075 182.331 180.917 197.367 183.312C212.389 185.708 221.695 185.374 235.559 182.427C249.408 179.479 251.391 172.162 251.159 168.794C250.942 165.469 244.951 160.518 226.977 161.563C209.017 162.594 190.045 163.959 170.826 167.69L106.469 142.123L160.117 132.555L173.677 136.708C199.914 145.317 220.508 144.998 220.508 144.998C239.119 144.214 249.307 140.221 253.923 133.049C258.554 125.877 246.745 122.857 246.745 122.857C235.674 120.606 210.45 122.697 202.404 123.423C194.343 124.134 171.332 127.648 171.332 127.648C165.254 125.761 148.481 118.283 132.75 111.997C119.566 106.799 107.859 102.545 107.859 102.545L161.651 92.4257C161.651 92.4257 176.817 97.0426 193.011 100.469C209.205 103.895 223.142 103.736 235.964 100.004C248.815 96.2586 246.745 89.8849 246.745 89.8849C243.648 82.132 223.504 83.6709 211.564 84.455C199.61 85.2535 173.532 88.5928 173.532 88.5928C173.532 88.5928 161.13 84.1356 154.531 81.5948C147.946 79.0395 112.388 65.8275 112.388 65.8275L158.062 57.8423C179.089 63.8966 191.115 66.6841 206.137 65.9001C221.159 65.1016 226.875 60.325 228.41 57.218C229.944 54.111 226.948 52.0348 221.535 50.9314C216.094 49.8135 211.116 50.4523 201.738 50.9314C192.36 51.4105 168.829 54.5901 168.829 54.5901C168.829 54.5901 156.224 50.0458 152.924 48.6955C149.639 47.3453 117.092 35.2222 117.092 35.2222C122.36 34.264 148.322 28.8195 148.322 28.8195C148.322 28.8195 163.054 34.3366 177.251 35.3093C191.492 36.2531 198.525 32.2604 198.525 32.2604C204.893 27.4838 202.186 24.8559 202.186 24.8559C199.249 20.7181 188.105 21.7489 180.044 22.3732C171.998 23.0266 157.034 25.727 157.034 25.727C155.355 24.6962 124.4 12.5877 124.4 12.5877C124.4 12.5877 132.157 10.5696 133.271 10.2792C134.386 9.97431 143.662 7.37547 146.947 6.3882C150.247 5.35738 151.795 4.99441 155.891 3.68774C160.001 2.38106 159.827 2.62787 162.562 1.74224C165.298 0.8566 165.529 0.682376 165.63 0.450078C165.732 0.203261 164.314 0.0290373 163.995 0.0145186C163.908 0.0145186 163.764 0 163.532 0C162.794 0 161.202 0.130668 158.163 1.03082" fill="#182B3A"/>
</svg>
