<svg width="263" height="76" viewBox="0 0 263 76" fill="none" xmlns="http://www.w3.org/2000/svg">
<g clip-path="url(#clip0_5385_1390)">
<path d="M16.6395 17.8835L18.2742 20.0046L19.4791 19.0747L16.816 15.624L15.872 16.3541C16.248 16.9382 15.7108 17.6376 15.0508 18.1294L15.5266 18.7519L16.6395 17.8912V17.8835Z" fill="#182B3A"/>
<path d="M20.984 15.8931C21.0684 15.555 21.3063 15.3552 21.667 15.1707C22.1889 14.9017 22.6264 15.0093 22.8182 15.3859C23.0101 15.7625 22.7645 16.2005 22.2656 16.4542C21.8819 16.654 21.337 16.7078 21.1758 16.4004L19.9018 17.0536C20.4544 17.9451 21.5212 17.8068 22.6647 17.215C23.8774 16.5925 24.5681 15.6318 24.0769 14.6712C23.6625 13.8642 22.7492 13.7566 21.6747 14.31C21.2756 14.5175 20.9609 14.7864 20.7998 15.1169H20.7844L20.6156 14.3176L22.9334 13.1264L22.5189 12.3271L19.2188 14.0256L19.8327 16.4849L20.9916 15.8931H20.984Z" fill="#182B3A"/>
<path d="M48.6596 14.5482C48.2606 14.3484 47.8538 14.2562 47.4931 14.31H47.4777L48.0303 13.6952L50.3558 14.871L50.7625 14.0641L47.447 12.3887L45.82 14.3331L46.9789 14.9171C47.3012 14.7865 47.6005 14.8633 47.9612 15.0401C48.4908 15.3091 48.6596 15.7241 48.4678 16.1007C48.2759 16.4849 47.777 16.5387 47.2782 16.2851C46.8944 16.093 46.5337 15.6857 46.6795 15.3706L45.3979 14.725C44.9988 15.6934 45.7432 16.4773 46.8868 17.0537C48.1071 17.6685 49.2813 17.6608 49.7725 16.7001C50.1793 15.8932 49.7264 15.0862 48.652 14.5406L48.6596 14.5482Z" fill="#182B3A"/>
<path d="M53.9389 16.2156C52.9718 15.4624 51.7669 15.3394 51.199 16.0772C50.6771 16.7535 50.9304 17.7449 51.8513 18.452C52.2504 18.7594 52.7646 18.99 53.1791 18.89H53.1944C52.8184 19.3358 52.2734 19.5894 51.6595 19.1129C51.5213 19.0053 51.3908 18.867 51.3218 18.721C51.245 18.5826 51.222 18.4289 51.2834 18.306L50.2243 17.4836C49.8943 18.2445 50.2703 19.0207 51.1222 19.6816C52.6035 20.8267 53.8238 20.404 54.5912 19.405C55.305 18.475 55.3127 17.2684 53.9619 16.2156H53.9389ZM53.7854 18.0754C53.5475 18.3905 53.0563 18.4136 52.5728 18.037C52.1046 17.6758 52.0202 17.207 52.2658 16.8842C52.4883 16.5998 52.9949 16.5845 53.4247 16.9149C53.9159 17.2915 54.0156 17.7603 53.7854 18.0677V18.0754Z" fill="#182B3A"/>
<path d="M5.80905 34.1079C6.57653 34.3615 7.13679 33.6237 7.58193 32.8552C8.02707 32.0789 8.36476 31.272 8.6871 31.3796C8.96339 31.4718 8.91734 31.9022 8.8099 32.225C8.6564 32.6861 8.37243 33.1318 7.99637 32.9781L7.50518 34.4691C8.46453 34.7765 9.25503 33.7697 9.6311 32.6246C9.98414 31.5487 10.0455 30.173 9.11689 29.8656C8.34173 29.6043 7.78147 30.3728 7.33633 31.1336C6.8912 31.9022 6.55351 32.7014 6.17744 32.5708C5.86277 32.4632 5.90115 31.9637 6.04697 31.5102C6.25419 30.88 6.55351 30.5111 7.06004 30.6495L7.55123 29.1585C6.46141 28.805 5.64788 29.8271 5.21809 31.1413C4.80365 32.4017 4.73458 33.7543 5.80905 34.1079Z" fill="#182B3A"/>
<path d="M5.32524 41.6315L5.44803 40.0637C4.9415 39.9638 4.6652 39.518 4.71893 38.7879C4.79568 37.7735 5.48641 37.443 6.14644 37.4891C6.80647 37.5429 7.43581 37.981 7.35906 38.9878C7.30533 39.6487 7.03672 40.1021 6.57623 40.1482L6.45343 41.716C7.5279 41.7621 8.24933 40.4019 8.34911 39.0953C8.48725 37.2739 7.55093 36.0212 6.26156 35.9213C4.9722 35.8214 3.85168 36.9204 3.71353 38.7418C3.59841 40.2635 4.18169 41.4547 5.32524 41.6315Z" fill="#182B3A"/>
<path d="M8.75774 46.673L7.1537 46.9497L6.80834 44.9131L8.4047 44.6364L8.14375 43.084L3.74609 43.8448L4.00704 45.3973L5.81829 45.0822L6.17133 47.1188L4.36008 47.4339L4.6287 48.9863L9.02636 48.2255L8.75774 46.673Z" fill="#182B3A"/>
<path d="M10.6127 52.0068C9.83752 50.27 8.45606 49.7166 7.27414 50.2469C6.09222 50.7772 5.59336 52.1759 6.36851 53.9128C7.14367 55.6497 8.52513 56.203 9.70705 55.6727C10.889 55.1424 11.3878 53.7437 10.6127 52.0068ZM9.06237 54.2433C8.45606 54.5122 7.69625 54.4354 7.28182 53.5055C6.86738 52.5832 7.31251 51.953 7.91882 51.6841C8.52513 51.4151 9.28494 51.4996 9.69938 52.4218C10.1138 53.3441 9.66868 53.9743 9.06237 54.2433Z" fill="#182B3A"/>
<path d="M13.384 56.9558L12.4323 55.7031L8.87891 58.4084L11.5344 61.8975L12.3326 61.2903L10.6288 59.0539L13.384 56.9558Z" fill="#182B3A"/>
<path d="M12.3553 62.8657L13.5756 63.9185L14.3815 63.5573L15.9778 64.9253L15.7399 65.7707L16.9832 66.839L18.1805 61.9819L16.9679 60.9443L12.3477 62.8657H12.3553ZM16.2618 64.0261L15.2257 63.1346L16.7607 62.3969H16.776L16.2618 64.0338V64.0261Z" fill="#182B3A"/>
<path d="M29.4116 68.2758C30.0333 68.4065 30.4784 68.737 30.4554 69.1212L31.9904 69.444C32.0748 68.3143 30.8698 67.5611 29.6495 67.3075C27.8613 66.9386 26.4952 67.7071 26.2343 68.9752C25.9733 70.2433 26.9173 71.496 28.7055 71.8649C29.2505 71.9802 29.9796 71.9725 30.4707 71.6343V72.1339L31.4531 72.3414L31.952 69.9436L29.473 69.4286L29.2965 70.274L30.371 70.4969C30.2021 70.8812 29.6419 71.0349 28.8821 70.8735C27.892 70.666 27.6464 69.9359 27.7769 69.2903C27.915 68.6447 28.4293 68.0683 29.4193 68.2758H29.4116Z" fill="#182B3A"/>
<path d="M35.8789 71.4195L35.8328 70.5664L38.7876 70.4204L38.7416 69.5212L35.7868 69.6672L35.7484 68.891L38.9795 68.7219L38.9335 67.792L34.1367 68.0379L34.3593 72.4954L39.2405 72.2495L39.1944 71.2504L35.8789 71.4195Z" fill="#182B3A"/>
<path d="M44.1589 66.4086L44.9801 69.037H44.9648L42.1481 67.0311L40.6055 67.5153L41.9332 71.7807L43.3454 71.3426L42.5165 68.6835L42.5318 68.6758L45.3562 70.7124L46.8988 70.2359L45.5711 65.9629L44.1589 66.4086Z" fill="#182B3A"/>
<path d="M50.3614 67.3078L49.9162 66.5854L52.4259 65.033L51.9501 64.2644L49.4404 65.8169L49.026 65.1559L51.7812 63.4498L51.29 62.6582L47.207 65.1867L49.5478 68.9909L53.7076 66.4163L53.1857 65.5632L50.3614 67.3078Z" fill="#182B3A"/>
<path d="M55.0273 59.1389L56.5469 62.3206L56.5392 62.3283L53.3465 60.8296L52.1953 61.9901L56.7004 63.7885L57.9744 62.505L56.1785 57.9707L55.0273 59.1389Z" fill="#182B3A"/>
<path d="M60.6705 57.4244L59.9414 56.9787L61.4764 54.4502L60.7012 53.9891L59.1739 56.5176L58.5062 56.1103L60.1793 53.3436L59.3812 52.8594L56.8945 56.971L60.7089 59.2843L63.2416 55.1035L62.3897 54.5809L60.6705 57.4244Z" fill="#182B3A"/>
<path d="M61.1684 47.7258L63.8085 48.525L63.8008 48.5404L60.5621 49.7547L60.1016 51.2994L64.3688 52.5829L64.7985 51.1688L62.1354 50.3695L62.1431 50.3541L65.4049 49.1475L65.873 47.6028L61.5982 46.3117L61.1684 47.7258Z" fill="#182B3A"/>
<path d="M65.1345 39.7327C64.3286 39.6942 63.991 40.5627 63.7684 41.4234C63.5458 42.2919 63.446 43.1603 63.1007 43.145C62.809 43.1296 62.74 42.7069 62.7553 42.3687C62.7783 41.8846 62.9318 41.3773 63.3386 41.4234L63.4077 39.8556C62.4023 39.8172 61.9188 41.0084 61.865 42.2073C61.8113 43.3371 62.1337 44.682 63.1084 44.7204C63.9296 44.7589 64.2519 43.8674 64.4745 43.0143C64.697 42.1535 64.8045 41.2928 65.2036 41.3082C65.5336 41.3235 65.641 41.8154 65.618 42.2919C65.5873 42.9605 65.4031 43.3909 64.8736 43.3986L64.8045 44.9664C65.948 45.0125 66.4546 43.8059 66.516 42.4225C66.5774 41.093 66.2704 39.7788 65.1422 39.7327H65.1345Z" fill="#182B3A"/>
<path d="M66.0186 35.7138L61.5977 36.3525L61.8223 37.9119L66.2433 37.2731L66.0186 35.7138Z" fill="#182B3A"/>
<path d="M62.5357 34.1768C63.3109 33.9078 63.2878 32.9625 63.1804 32.0864C63.0729 31.2026 62.858 30.3649 63.2341 30.2343C63.5488 30.1267 63.8251 30.5494 63.9786 30.9951C64.1935 31.6253 64.1781 32.0941 63.6946 32.3016L64.2011 33.7849C65.2833 33.4083 65.3063 32.1018 64.8612 30.7876C64.4314 29.5349 63.6639 28.4205 62.5971 28.7894C61.8373 29.0507 61.8373 29.9806 61.9447 30.8644C62.0599 31.7559 62.2824 32.6013 61.9524 32.7089C61.6761 32.8011 61.4536 32.4323 61.3461 32.1172C61.1926 31.6637 61.1466 31.1334 61.538 31.0258L61.0314 29.5426C60.0798 29.8807 60.0644 31.1642 60.4558 32.2939C60.8242 33.3622 61.6147 34.4996 62.5357 34.1768Z" fill="#182B3A"/>
<path d="M20.9997 66.7856C20.6466 67.2544 20.7387 67.923 21.2069 68.2765C21.6751 68.6301 22.3428 68.5378 22.6958 68.069C23.0488 67.6002 22.9567 66.9316 22.4886 66.5781C22.0204 66.2246 21.3527 66.3168 20.9997 66.7856Z" fill="#182B3A"/>
<path d="M12.2798 24.2013C12.6252 23.7248 12.5254 23.0562 12.0496 22.7104C11.5737 22.3645 10.906 22.4644 10.5607 22.9409C10.2153 23.4174 10.3151 24.086 10.7909 24.4319C11.2667 24.7777 11.9345 24.6778 12.2798 24.2013Z" fill="#182B3A"/>
<path d="M57.8065 24.4397C58.2824 24.7855 58.9501 24.6856 59.2954 24.2091C59.6408 23.7326 59.541 23.064 59.0652 22.7182C58.5894 22.3723 57.9217 22.4722 57.5763 22.9487C57.2309 23.4252 57.3307 24.0938 57.8065 24.4397Z" fill="#182B3A"/>
<path d="M37.6446 11.3204L36.7773 12.673H38.8956V12.0198H38.059L38.5272 11.3281L38.059 10.6133H38.8802V9.96777H36.7773L37.6446 11.3204Z" fill="#182B3A"/>
<path d="M33.0691 12.0198L32.5472 12.0274V10.6133H33.0307V9.96777H31.2962V10.6133H31.7797V12.0274L31.2578 12.0198V12.673H33.0691V12.0198Z" fill="#182B3A"/>
<path d="M35.5362 10.9205H34.4387V9.95215H33.6328V12.6727H34.4387V11.5891H35.5362V12.6727H36.342V9.95215H35.5362V10.9205Z" fill="#182B3A"/>
<path d="M34.6453 8.34607C34.6453 8.13857 34.7911 8.0156 35.006 8.0156C35.1979 8.0156 35.3437 8.16162 35.3437 8.34607V9.30673H36.8633V8.49978H35.9423V8.29227C35.9347 7.71587 35.666 7.24707 35.006 7.24707C34.4995 7.24707 34.1541 7.53143 34.0927 8.0156C34.085 8.11551 34.085 8.23079 34.085 8.3307V8.49209H33.1641V9.29905H34.653V8.33838L34.6453 8.34607Z" fill="#182B3A"/>
<path d="M35.003 13.3105C34.7344 13.3105 34.5195 13.5257 34.5195 13.7947C34.5195 14.0637 34.7344 14.2789 35.003 14.2789C35.2717 14.2789 35.4866 14.0637 35.4866 13.7947C35.4866 13.5257 35.2717 13.3105 35.003 13.3105Z" fill="#182B3A"/>
<path d="M42.4877 6.8553L43.2014 5.97149L39.034 6.58631L39.6941 2.46699L36.4169 5.1261L34.9127 1.17585L33.4084 5.1261L30.1313 2.4593L30.799 6.64011L26.6239 5.97149L27.353 6.86298C11.7194 10.3444 0 24.3317 0 41.0088C0 60.3066 15.6719 76 34.9434 76C54.2148 76 69.8867 60.3066 69.8867 41.0088C69.8867 24.3086 58.1443 10.3137 42.4954 6.84761L42.4877 6.8553ZM34.9894 5.99454C37.6295 5.99454 39.7785 8.14643 39.7785 10.7902C39.7785 13.4339 37.6295 15.5858 34.9894 15.5858C32.3493 15.5858 30.2003 13.4339 30.2003 10.7902C30.2003 8.14643 32.3493 5.99454 34.9894 5.99454ZM39.4024 16.8539C44.6136 17.8145 49.2569 20.4275 52.7642 24.1396H50.5232V25.8149H48.4817V24.1396H45.7034V26.4528H44.061C44.061 26.4528 44.0687 22.9253 44.0687 22.8945C44.0687 22.1029 43.424 21.4574 42.6335 21.4574C41.843 21.4574 41.1983 22.1029 41.1983 22.8945C41.1983 22.933 41.206 41.5852 41.206 41.5852L38.3586 44.2136V45.6046C37.1077 45.7891 36.0639 46.5883 35.5343 47.6873V19.2133L36.486 16.4466L39.7094 19.0672L39.4101 16.8462L39.4024 16.8539ZM40.7302 57.1556C40.0164 57.4323 39.5099 58.124 39.5099 58.9309C39.5099 59.9838 40.3618 60.8446 41.4209 60.8446H43.8231C44.8745 60.8446 45.7341 59.9915 45.7341 58.9309C45.7341 58.124 45.2276 57.4323 44.5138 57.1556C47.7679 56.0182 50.1011 52.9287 50.1011 49.2859C50.1011 47.403 48.7043 45.8505 46.893 45.5892V44.1982L44.0457 41.5698V36.0902H45.6881V38.4035H48.4664V36.6512H50.5078V38.4035H53.2861V32.2168H50.5078V33.7154H48.4664V32.2168H46.1562V30.3185H48.4664V28.8199H50.5078V30.3185H53.2861V24.7083C57.1389 29.0505 59.4797 34.7606 59.4797 41.0088C59.4797 54.3736 48.781 65.2636 35.5113 65.5787V51.7682C36.2941 54.2813 38.2435 56.2872 40.7225 57.1556H40.7302ZM37.0616 49.2859C37.0616 48.3867 37.7063 47.6489 38.5582 47.4952C38.6273 48.5558 39.5022 49.4012 40.5843 49.4012H44.6673C45.7495 49.4012 46.6244 48.5558 46.6935 47.4952C47.5377 47.6489 48.1824 48.3867 48.1824 49.2859C48.1824 52.7289 45.8185 54.8039 42.6258 55.5955C39.4331 54.8039 37.0616 52.7289 37.0616 49.2859ZM18.5116 31.064C18.3811 31.2331 18.289 31.4406 18.289 31.6712C18.289 31.8325 18.3351 31.9863 18.4042 32.1169L12.0494 32.1323C12.3257 31.4099 12.6404 30.7105 12.9858 30.0265L18.5116 31.064ZM14.5054 27.4058C15.2268 26.3299 16.025 25.3077 16.8999 24.3547C17.345 25.9149 18.3044 27.3136 19.5784 28.3204C19.4019 28.428 19.2561 28.574 19.1716 28.7815C19.1179 28.9121 19.1026 29.0505 19.1102 29.1811L14.4977 27.4058H14.5054ZM12.226 35.5599C12.226 35.5599 15.2652 34.9912 18.573 34.3764C18.55 34.5455 18.55 34.7222 18.6191 34.899C18.6651 35.0143 18.7342 35.1065 18.8109 35.191L12.5636 37.6273C11.6887 38.1576 11.4354 39.2335 11.942 40.0481C12.1876 40.4401 12.5713 40.7168 13.0241 40.8244C13.4769 40.9319 13.9451 40.8551 14.3365 40.6092L19.824 37.2123C19.8624 37.3813 19.9238 37.5427 20.0542 37.6811C20.1387 37.7733 20.2308 37.8348 20.3382 37.8886L15.388 42.4152C14.7663 43.2299 14.9198 44.3212 15.6796 44.8976C16.4471 45.474 17.5369 45.3279 18.1125 44.5594L22.0497 39.3488C22.1418 39.4948 22.2569 39.6178 22.4181 39.7023C22.5025 39.7484 22.5946 39.7561 22.6867 39.7715C22.7097 39.7868 22.7251 39.8022 22.7404 39.8176L19.9928 45.351C19.7166 46.304 20.2308 47.2416 21.1287 47.5029C22.019 47.7565 22.9553 47.2339 23.2086 46.3424L24.7896 40.7936C25.4727 41.0011 26.1941 41.1087 26.9385 41.1087C27.5448 41.1087 27.9439 41.0549 28.5119 40.9243C28.5119 41.9234 28.5042 42.8763 28.5042 42.9686C28.3737 43.1146 23.4695 48.4482 23.4695 48.4482C22.61 49.1552 22.2953 49.1937 21.735 48.6326L21.5739 48.4712L20.0389 49.6701L20.2461 49.8776C20.8217 50.454 21.3666 50.8537 22.1034 50.9229C21.0366 51.4839 20.131 51.9604 19.9698 52.0449C19.801 51.8758 19.0105 51.0535 18.596 50.6154C18.5346 49.5241 17.6367 48.6557 16.5315 48.6557C15.4263 48.6557 14.4516 49.5856 14.4516 50.7384V50.846L15.2498 51.6453V51.0151C15.2498 50.8767 15.3035 50.7461 15.4033 50.6462C15.6105 50.4387 15.9406 50.4387 16.1478 50.6462C16.1478 50.6462 16.7618 51.3148 17.1685 51.7605L17.3297 51.9373C17.4448 52.0603 17.5292 52.1525 17.5292 52.1525L17.9897 52.6213H17.3911C16.9997 52.2908 16.5085 52.1218 15.9943 52.1371C15.4417 52.1602 14.9275 52.3984 14.5514 52.8057C14.2751 53.1055 14.1063 53.4667 14.0372 53.851C11.7424 50.1082 10.4147 45.7122 10.4147 41.0165C10.4147 39.0414 10.6526 37.1277 11.0978 35.2909C11.4048 35.5522 11.7962 35.6521 12.249 35.5676L12.226 35.5599ZM15.058 54.95C15.058 54.7962 15.1194 54.6349 15.2345 54.5119C15.3573 54.3812 15.5184 54.3044 15.695 54.2967H17.1915C16.4471 54.4735 15.8024 54.9653 15.4494 55.6647C15.2652 55.3957 15.081 55.096 15.058 54.973V54.95ZM16.9613 57.1326C16.992 56.9942 17.0764 56.879 17.1915 56.8098L20.3229 55.0345L21.1978 55.9414H21.1824L21.3973 56.1489L21.5585 56.3102H21.5662L22.6867 57.3324C22.8786 57.5322 22.8786 57.8627 22.679 58.0702C22.5793 58.1701 22.4488 58.2239 22.3106 58.2239H21.6813L22.4795 59.0232H22.5869C23.1395 59.0232 23.6614 58.808 24.0528 58.416C24.4442 58.0241 24.6591 57.5015 24.6591 56.9404C24.6591 55.8338 23.7919 54.9346 22.7021 54.8731C22.4565 54.6272 22.1111 54.2813 21.9346 54.1046C22.4334 53.7895 31.1213 48.2637 31.9272 47.7565C31.6585 50.7999 29.0338 54.3659 26.5625 56.5101C25.4343 57.6475 24.9968 58.9079 24.9968 60.0069C24.9968 60.9752 25.3345 61.8129 25.8334 62.3048C26.2708 62.7429 26.9309 62.8735 27.4835 62.6276L27.8288 62.4739L27.5602 62.2049C27.1227 61.7668 26.9692 60.9983 26.9692 60.4296C26.9692 59.2845 27.2609 58.7004 27.8135 58.1009C27.9286 58.2162 28.1742 58.4621 28.5196 58.808C28.2893 59.4382 28.1742 60.076 28.1742 60.6909C28.1742 61.9128 28.604 63.0195 29.3177 63.7343C29.4636 63.8803 31.0522 65.1945 31.7123 64.9716L32.1881 64.8102L31.7813 64.5105C31.5511 64.3414 30.799 63.4653 30.5457 62.935C30.3462 62.5123 30.2234 61.9974 30.2234 61.4594C30.2234 60.591 30.5764 59.5765 31.3669 58.7926C31.4053 58.7311 33.1398 54.4504 34.0301 52.3831C34.0301 52.4292 34.0301 52.7904 34.0301 52.7904C34.0301 53.2746 34.0377 53.7587 34.0377 54.2275C34.0377 56.7176 33.8842 58.9309 32.7944 60.0299C32.1114 60.7139 30.8527 61.0675 30.8527 61.0675L31.1827 61.4517C31.1827 61.4517 31.743 62.2971 32.5949 62.3278C32.7944 62.3278 32.9556 62.1972 33.1321 62.1127C33.1782 64.0647 33.5465 64.8333 34.1989 65.5634C27.66 65.3712 21.7504 62.6045 17.4602 58.2469L17.0227 57.5245C16.969 57.44 16.946 57.3478 16.946 57.2479C16.946 57.2094 16.946 57.171 16.9613 57.1249V57.1326ZM30.1236 22.2182L30.7145 21.2114H28.274L28.5579 20.1662C28.5579 19.659 28.1512 19.2517 27.6446 19.2517C27.5218 19.2517 27.4067 19.2748 27.2993 19.3209C27.3223 19.2286 27.33 19.1441 27.33 19.0749C27.33 18.7445 27.0613 18.4755 26.7313 18.4755C26.4013 18.4755 26.1327 18.7445 26.1327 19.0749C26.1327 19.1441 26.148 19.2286 26.1634 19.3209C26.0559 19.2748 25.9408 19.2517 25.818 19.2517C25.3115 19.2517 24.9047 19.659 24.9047 20.1662L25.1887 21.2114H24.544C24.0989 21.2114 23.7305 21.5265 23.6537 21.9416C23.5233 21.9031 23.3774 21.8801 23.2316 21.8801C22.4027 21.8801 21.735 22.5487 21.735 23.3787C21.735 23.64 21.8041 23.8783 21.9192 24.0934C22.1725 23.6246 22.6714 23.3095 23.2393 23.3095C23.7535 23.3095 24.1986 23.5632 24.4673 23.9551C24.498 24.0012 24.5287 24.0473 24.5517 24.0934C24.6284 24.2395 24.6745 24.4009 24.6975 24.5622H21.666C20.8371 24.5622 20.1694 23.8859 20.1694 23.0636V24.032C20.1694 24.862 20.8371 25.5306 21.666 25.5306H24.5363C24.2831 25.9917 23.7919 26.2991 23.2239 26.2991C23.1932 26.2991 23.1625 26.2991 23.1395 26.2991C23.4081 26.6911 23.8609 26.9447 24.3752 26.9447C25.0122 26.9447 25.5571 26.5451 25.772 25.9763H29.8319C30.6608 25.9763 31.3285 26.645 31.3285 27.475C31.3285 27.8592 31.3285 28.4049 30.9448 28.8122L30.5687 29.3732L28.013 33.3235C27.5449 34.0075 26.6162 34.1842 25.9331 33.7154C25.2501 33.2466 25.0736 32.286 25.5341 31.602C26.125 31.2715 26.3629 30.5875 26.2478 29.8728C26.1097 28.989 25.3038 28.3818 24.4289 28.4741H23.9223C20.7143 28.4664 18.3197 26.2914 17.9897 23.2173C21.3743 19.9818 25.6722 17.7069 30.4536 16.8231L30.1006 19.0442L33.3624 16.3928L34.4598 19.221V23.6016L30.1006 22.1952L30.1236 22.2182ZM34.9434 73.9173C16.8232 73.9173 2.08755 59.1538 2.08755 41.0165C2.08755 24.9696 13.6228 11.5741 28.8342 8.69208L29.2947 9.25311L25.3499 10.7594L29.2947 12.2734L26.6316 15.5551L30.8066 14.8864L30.6685 15.7472C18.596 17.7992 9.36325 28.3434 9.36325 41.0088C9.36325 55.1421 20.8448 66.6393 34.951 66.6393C49.0573 66.6393 60.5388 55.1421 60.5388 41.0088C60.5388 28.3511 51.3214 17.8145 39.2566 15.7549L39.1415 14.9095L43.2091 15.5627L40.6534 12.235L44.4908 10.7671L40.6074 9.18394L41.0141 8.6844C56.2409 11.5433 67.8068 24.9465 67.8068 41.0165C67.8068 59.1615 53.0636 73.9173 34.951 73.9173H34.9434Z" fill="#182B3A"/>
<path d="M91.6891 34.2075C98.0132 34.2075 101.643 30.8721 101.643 23.9783V8.50781H97.0615V24.2781C97.0615 28.5895 95.5649 30.1573 92.0115 30.1573C88.0282 30.1573 87.0382 27.9132 87.0382 24.7238V8.50781H82.418V25.0312C82.418 29.8653 84.1218 34.2075 91.6968 34.2075H91.6891Z" fill="#182B3A"/>
<path d="M121.583 16.3698C121.583 19.4823 121.652 23.9782 121.829 26.522C120.938 24.6084 112.059 8.5 112.059 8.5H106.188V33.7923H110.67V24.7621C110.67 21.7264 110.601 17.7531 110.455 15.5859C111.168 17.2382 120.225 33.7923 120.225 33.7923H126.058V8.50768H121.575V16.3774L121.583 16.3698Z" fill="#182B3A"/>
<path d="M136.12 8.50763H131.5V33.8H136.12V8.50763Z" fill="#182B3A"/>
<path d="M151.684 23.0022C151.009 25.1387 150.617 26.522 150.264 28.2435H150.195C149.765 26.4068 149.236 24.7237 148.775 23.3019L144.117 8.5H139.074L147.424 33.7923H152.758L161.147 8.5H156.419L151.692 23.0022H151.684Z" fill="#182B3A"/>
<path d="M164.293 33.7925H177.478V29.6347H168.959V22.7794H177.041V18.8061H168.959V12.5887H177.478V8.50781H164.293V33.7925Z" fill="#182B3A"/>
<path d="M187.097 23.3399H187.273L193.95 33.7919H199.676L193.92 25.2842C193.313 24.4235 192.638 23.4475 191.962 22.5099C195.585 21.9104 198.072 19.2129 198.072 15.4701C198.072 10.2979 194.656 8.35352 189.361 8.35352C186.59 8.35352 184.349 8.39194 182.469 8.49954V33.7919H187.089V23.3399H187.097ZM187.097 12.4421C187.557 12.3652 188.233 12.3268 188.908 12.3268C191.824 12.3268 193.244 13.5257 193.244 15.962C193.244 18.3982 191.54 19.82 188.762 19.82C188.048 19.82 187.411 19.7816 187.089 19.7431V12.4344L187.097 12.4421Z" fill="#182B3A"/>
<path d="M207.886 29.9727C206.144 29.9727 204.225 29.5577 202.875 29.0735L202.591 33.6079C204.087 34.0152 205.791 34.2073 207.495 34.2073C213.397 34.2073 216.981 30.7259 216.981 25.961C216.981 18.0528 206.889 19.7436 206.889 15.2092C206.889 13.4109 208.239 12.1351 210.902 12.1351C212.361 12.1351 213.85 12.3964 215.2 12.8114L215.454 8.53839C214.034 8.27709 212.468 8.08496 211.117 8.08496C205.361 8.08496 201.984 11.1975 201.984 15.6934C201.984 24.0089 212.046 21.8032 212.046 26.6373C212.046 28.9583 210.235 29.9727 207.886 29.9727Z" fill="#182B3A"/>
<path d="M225.339 8.50781H220.719V33.8002H225.339V8.50781Z" fill="#182B3A"/>
<path d="M234.717 33.7925H239.337V12.6656H245.561V8.50781H228.5V12.6656H234.717V33.7925Z" fill="#182B3A"/>
<path d="M262.937 29.6347H254.073V22.7794H262.492V18.8061H254.073V12.5887H262.937V8.50781H249.207V33.7925H262.937V29.6347Z" fill="#182B3A"/>
<path d="M261.218 3.297L259.238 0L252.691 4.11932L254.334 6.85529L261.218 3.297Z" fill="#182B3A"/>
<path d="M90.7013 48.702C87.6007 48.702 84.5307 48.8173 82.543 48.8865V74.102C84.6766 74.1788 86.956 74.2864 89.5808 74.2864C97.8081 74.2864 103.495 69.7521 103.495 61.06C103.495 52.3679 98.5219 48.6943 90.7013 48.6943V48.702ZM90.0719 70.1363C89.0972 70.1363 88.0918 70.0595 87.4165 69.9519V52.9059C88.1993 52.829 89.2507 52.7906 90.3713 52.7906C96.135 52.7906 98.2686 56.0107 98.2686 61.4443C98.2686 67.4388 94.8303 70.1363 90.0719 70.1363Z" fill="#182B3A"/>
<path d="M106.793 74.1401H120.523V69.9824H111.651V63.1271H120.07V59.1538H111.651V52.9364H120.523V48.8555H106.793V74.1401Z" fill="#182B3A"/>
<path d="M151.356 69.6831C150.381 69.9829 149.337 70.1289 148.14 70.1289C143.013 70.1289 140.097 66.9779 140.097 61.6212C140.097 55.9649 143.688 52.8216 148.662 52.8216C151.018 52.8216 153.336 53.3057 155.354 54.0973L156.106 49.563C153.934 48.9251 151.471 48.4717 148.961 48.4717C140.204 48.4717 134.816 54.1281 134.816 62.0747C134.816 70.0213 139.567 74.5095 147.572 74.5095C150.603 74.5095 153.704 73.9485 156.214 72.934V60.8681H151.348V69.6754L151.356 69.6831Z" fill="#182B3A"/>
<path d="M161.379 74.1401H175.109V69.9824H166.245V63.1271H174.664V59.1538H166.245V52.9364H175.109V48.8555H161.379V74.1401Z" fill="#182B3A"/>
<path d="M196.362 56.7174C196.362 59.83 196.438 64.3259 196.623 66.8697C195.686 64.9637 186.346 48.8477 186.346 48.8477H180.16V74.14H184.872V65.1098C184.872 62.0741 184.796 58.1008 184.65 55.9335C185.402 57.5858 194.926 74.14 194.926 74.14H201.074V48.8477H196.362V56.7174Z" fill="#182B3A"/>
<path d="M206.129 74.1401H219.859V69.9824H210.987V63.1271H219.406V59.1538H210.987V52.9364H219.859V48.8555H206.129V74.1401Z" fill="#182B3A"/>
<path d="M207.59 43.6831L214.474 47.2414L216.155 44.467L209.647 40.3477L207.59 43.6831Z" fill="#182B3A"/>
<path d="M236.129 63.3497C235.415 65.4862 235.008 66.8696 234.632 68.5911H234.556C234.103 66.7543 233.542 65.0712 233.059 63.6417L228.155 48.8398H222.844L231.639 74.1322H237.249L246.083 48.8398H241.11L236.137 63.342L236.129 63.3497Z" fill="#182B3A"/>
<path d="M263 52.9364V48.8555H249.262V74.1401H263V69.9824H254.128V63.1271H262.547V59.1538H254.128V52.9364H263Z" fill="#182B3A"/>
</g>
<defs>
<clipPath id="clip0_5385_1390">
<rect width="263" height="76" fill="white"/>
</clipPath>
</defs>
</svg>
